<?xml version="1.0" encoding="UTF-8" standalone="no"?>
<!-- Created with Inkscape (http://www.inkscape.org/) -->

<svg
   xmlns:dc="http://purl.org/dc/elements/1.1/"
   xmlns:cc="http://creativecommons.org/ns#"
   xmlns:rdf="http://www.w3.org/1999/02/22-rdf-syntax-ns#"
   xmlns:svg="http://www.w3.org/2000/svg"
   xmlns="http://www.w3.org/2000/svg"
   xmlns:sodipodi="http://sodipodi.sourceforge.net/DTD/sodipodi-0.dtd"
   xmlns:inkscape="http://www.inkscape.org/namespaces/inkscape"
   width="420mm"
   height="297mm"
   viewBox="0 0 419.99999 297"
   version="1.1"
   id="svg8"
   inkscape:version="0.92.1 r"
   sodipodi:docname="poster-v1.svg">
  <defs
     id="defs2" />
  <sodipodi:namedview
     id="base"
     pagecolor="#ffffff"
     bordercolor="#666666"
     borderopacity="1.0"
     inkscape:pageopacity="0.0"
     inkscape:pageshadow="2"
     inkscape:zoom="0.61736111"
     inkscape:cx="549.53458"
     inkscape:cy="518.26733"
     inkscape:document-units="in"
     inkscape:current-layer="layer1"
     showgrid="false"
     units="mm"
     inkscape:window-width="2516"
     inkscape:window-height="1348"
     inkscape:window-x="20"
     inkscape:window-y="68"
     inkscape:window-maximized="0"
     showguides="false"
     inkscape:snap-bbox="true"
     inkscape:bbox-nodes="true"
     inkscape:bbox-paths="true"
     inkscape:snap-bbox-edge-midpoints="true"
     inkscape:snap-bbox-midpoints="true"
     inkscape:object-paths="true"
     inkscape:snap-intersection-paths="true"
     inkscape:snap-midpoints="true"
     inkscape:snap-smooth-nodes="true"
     inkscape:snap-object-midpoints="true"
     inkscape:snap-center="true"
     inkscape:snap-text-baseline="true"
     inkscape:snap-page="true"
     inkscape:snap-global="false" />
  <metadata
     id="metadata5">
    <rdf:RDF>
      <cc:Work
         rdf:about="">
        <dc:format>image/svg+xml</dc:format>
        <dc:type
           rdf:resource="http://purl.org/dc/dcmitype/StillImage" />
        <dc:title></dc:title>
      </cc:Work>
    </rdf:RDF>
  </metadata>
  <g
     inkscape:label="Layer 1"
     inkscape:groupmode="layer"
     id="layer1"
     transform="translate(0,6.1747972e-5)">
    <g
       aria-label="CRYPTOGRAPHY"
       style="font-style:normal;font-variant:normal;font-weight:normal;font-stretch:normal;font-size:34.90988922px;line-height:21.8186779px;font-family:Heebo;-inkscape-font-specification:Heebo;letter-spacing:0px;word-spacing:0px;fill:#000000;fill-opacity:1;stroke:none;stroke-width:0.87274712px;stroke-linecap:butt;stroke-linejoin:miter;stroke-opacity:1"
       id="text4492"
       transform="matrix(1.5323033,0,0,1.5323033,-29.260458,106.26344)">
      <path
         d="m 40.113263,-52.729167 q -0.08523,2.659151 -1.397759,4.687607 -1.31253,2.011409 -3.630765,3.119389 -2.318235,1.090934 -5.352395,1.090934 -3.340986,0 -5.74445,-1.465942 -2.386418,-1.465943 -3.64781,-4.210324 -1.244347,-2.761427 -1.244347,-6.545604 v -1.039796 q 0,-3.750086 1.295484,-6.511513 1.31253,-2.778473 3.681903,-4.261461 2.386418,-1.482989 5.522853,-1.482989 3.204619,0 5.505808,1.159118 2.301189,1.159117 3.562581,3.221664 1.278439,2.045502 1.500035,4.721699 h -6.341054 q -0.01705,-2.011409 -0.988659,-2.931885 -0.971614,-0.937521 -3.238711,-0.937521 -1.414805,0 -2.284143,0.664788 -0.869338,0.647742 -1.31253,2.181868 -0.426146,1.51708 -0.426146,4.14214 v 1.073888 q 0,2.727335 0.392054,4.227369 0.409101,1.500035 1.295484,2.130731 0.886384,0.61365 2.471648,0.61365 1.960272,0 3.000068,-0.869338 1.039797,-0.869338 1.056843,-2.778472 z"
         style="stroke-width:0.87274712px"
         id="path4532"
         inkscape:connector-curvature="0" />
      <path
         d="m 63.05697,-44.444887 v 0.272734 H 56.238632 L 52.0624,-52.558709 h -2.948931 v 8.386556 h -6.3581 v -24.81875 H 52.76128 q 2.897793,0 5.028524,0.869338 2.13073,0.852292 3.289848,2.539831 1.176163,1.687539 1.176163,4.091003 0,2.863702 -1.090934,4.517148 -1.073888,1.636401 -3.170527,2.676198 z M 49.113469,-57.7236 h 3.647811 q 1.551172,0 2.335281,-0.767063 0.801154,-0.784109 0.801154,-2.284143 0,-1.465942 -0.8182,-2.267097 -0.818201,-0.801155 -2.318235,-0.801155 h -3.647811 z"
         style="stroke-width:0.87274712px"
         id="path4534"
         inkscape:connector-curvature="0" />
      <path
         d="m 77.648215,-68.990903 h 6.835384 l -7.909272,16.006048 v 8.812702 h -6.477421 v -8.812702 l -7.926318,-16.006048 h 6.835384 l 4.329644,10.329782 z"
         style="stroke-width:0.87274712px"
         id="path4536"
         inkscape:connector-curvature="0" />
      <path
         d="m 96.125904,-68.990903 q 2.931885,0 5.147846,1.125026 2.21596,1.10798 3.40917,3.085298 1.19321,1.960272 1.19321,4.448965 0,2.386418 -1.19321,4.227369 -1.19321,1.840952 -3.40917,2.863702 -2.198915,1.022751 -5.147846,1.022751 h -3.647811 v 8.045639 h -6.3581 v -24.81875 z m 0,11.60822 q 1.670493,0 2.488693,-0.784109 0.818201,-0.801154 0.818201,-2.13073 0,-1.534126 -0.835247,-2.539831 -0.835246,-1.005705 -2.471647,-1.005705 h -3.647811 v 6.460375 z"
         style="stroke-width:0.87274712px"
         id="path4538"
         inkscape:connector-curvature="0" />
      <path
         d="m 128.80279,-63.843058 h -7.3979 v 19.670905 h -6.37515 v -19.670905 h -7.21039 v -5.147845 h 13.58554 7.3979 z"
         style="stroke-width:0.87274712px"
         id="path4540"
         inkscape:connector-curvature="0" />
      <path
         d="m 151.5249,-56.12129 q 0,3.73304 -1.39776,6.528558 -1.39776,2.778473 -3.88645,4.278507 -2.4887,1.482988 -5.67627,1.482988 -3.23871,0 -5.74445,-1.482988 -2.48869,-1.500034 -3.88645,-4.278507 -1.38071,-2.795518 -1.38071,-6.528558 v -0.90343 q 0,-3.73304 1.38071,-6.511513 1.39776,-2.795518 3.88645,-4.295552 2.4887,-1.500035 5.71036,-1.500035 3.18757,0 5.67627,1.500035 2.50574,1.500034 3.90349,4.295552 1.41481,2.778473 1.41481,6.511513 z m -6.49447,-0.937522 q 0,-3.44326 -1.17616,-5.25012 -1.15912,-1.823905 -3.32394,-1.823905 -4.48306,0 -4.48306,7.074025 v 0.937522 q 0,3.44326 1.12503,5.284211 1.14207,1.823906 3.39212,1.823906 2.14778,0 3.3069,-1.857997 1.15911,-1.857997 1.15911,-5.25012 z"
         style="stroke-width:0.87274712px"
         id="path4542"
         inkscape:connector-curvature="0" />
      <path
         d="m 174.97999,-47.172222 q -0.75002,0.801155 -2.13073,1.568218 -1.38071,0.750017 -3.40917,1.261392 -2.01141,0.511375 -4.5001,0.511375 -3.35803,0 -5.82968,-1.397759 -2.47165,-1.414805 -3.81827,-4.14214 -1.34662,-2.727335 -1.34662,-6.56265 v -1.278438 q 0,-3.801224 1.36367,-6.545605 1.38071,-2.744381 3.80122,-4.159186 2.42051,-1.431851 5.50581,-1.431851 5.02852,0 7.48312,2.301189 2.47165,2.301189 2.84666,6.392192 h -6.08537 q -0.25569,-1.857997 -1.17616,-2.710289 -0.90343,-0.852292 -2.82961,-0.852292 -2.0455,0 -3.25576,1.738676 -1.19321,1.738676 -1.19321,5.233074 v 1.31253 q 0,3.579627 1.17617,5.284212 1.19321,1.687538 3.85236,1.687538 1.14207,0 1.94322,-0.238642 0.8182,-0.255687 1.2273,-0.596604 v -3.375077 h -3.93759 v -4.500103 h 10.31274 z"
         style="stroke-width:0.87274712px"
         id="path4544"
         inkscape:connector-curvature="0" />
      <path
         d="m 198.46916,-44.444887 v 0.272734 h -6.81834 l -4.17623,-8.386556 h -2.94894 v 8.386556 h -6.3581 v -24.81875 h 10.00592 q 2.89779,0 5.02852,0.869338 2.13073,0.852292 3.28985,2.539831 1.17616,1.687539 1.17616,4.091003 0,2.863702 -1.09093,4.517148 -1.07389,1.636401 -3.17053,2.676198 z M 184.52565,-57.7236 h 3.64782 q 1.55117,0 2.33528,-0.767063 0.80115,-0.784109 0.80115,-2.284143 0,-1.465942 -0.8182,-2.267097 -0.8182,-0.801155 -2.31823,-0.801155 h -3.64782 z"
         style="stroke-width:0.87274712px"
         id="path4546"
         inkscape:connector-curvature="0" />
      <path
         d="m 215.54909,-48.280202 h -7.97746 l -1.26139,4.108049 h -6.83539 l 9.05135,-24.81875 h 4.32964 1.70459 l 9.10248,24.81875 h -6.85243 z m -1.58527,-5.147845 -2.42051,-7.841088 -2.40346,7.841088 z"
         style="stroke-width:0.87274712px"
         id="path4548"
         inkscape:connector-curvature="0" />
      <path
         d="m 235.28818,-68.990903 q 2.93189,0 5.14785,1.125026 2.21596,1.10798 3.40916,3.085298 1.19321,1.960272 1.19321,4.448965 0,2.386418 -1.19321,4.227369 -1.1932,1.840952 -3.40916,2.863702 -2.19892,1.022751 -5.14785,1.022751 h -3.64781 v 8.045639 h -6.3581 v -24.81875 z m 0,11.60822 q 1.67049,0 2.48869,-0.784109 0.8182,-0.801154 0.8182,-2.13073 0,-1.534126 -0.83524,-2.539831 -0.83525,-1.005705 -2.47165,-1.005705 h -3.64781 v 6.460375 z"
         style="stroke-width:0.87274712px"
         id="path4550"
         inkscape:connector-curvature="0" />
      <path
         d="m 269.10714,-68.990903 v 24.81875 h -6.34106 v -10.057049 h -8.28428 v 10.057049 h -6.3581 v -24.81875 h 6.3581 v 9.630902 h 8.28428 v -9.630902 z"
         style="stroke-width:0.87274712px"
         id="path4552"
         inkscape:connector-curvature="0" />
      <path
         d="m 286.35753,-68.990903 h 6.83538 l -7.90927,16.006048 v 8.812702 h -6.47742 v -8.812702 l -7.92632,-16.006048 h 6.83538 l 4.32965,10.329782 z"
         style="stroke-width:0.87274712px"
         id="path4554"
         inkscape:connector-curvature="0" />
    </g>
    <g
       aria-label="LINUX"
       style="font-style:normal;font-variant:normal;font-weight:normal;font-stretch:normal;font-size:33.04231644px;line-height:20.6514473px;font-family:Heebo;-inkscape-font-specification:Heebo;letter-spacing:0px;word-spacing:0px;fill:#000000;fill-opacity:1;stroke:none;stroke-width:0.82605785px;stroke-linecap:butt;stroke-linejoin:miter;stroke-opacity:1"
       id="text4496"
       transform="matrix(1.7627829,0,0,1.7627829,-0.26287567,265.87241)">
      <path
         d="m 15.847451,-104.26146 v 4.856316 H 3.9567343 0.14912361 V -122.89617 H 6.1670846 v 18.63471 z"
         style="stroke-width:0.82605785px"
         id="path4521"
         inkscape:connector-curvature="0" />
      <path
         d="m 18.509551,-99.405144 v -23.491026 h 5.985693 v 23.491026 z"
         style="stroke-width:0.82605785px"
         id="path4523"
         inkscape:connector-curvature="0" />
      <path
         d="m 42.081242,-99.405144 -7.841096,-13.665446 v 13.665446 h -6.017961 v -23.491026 h 6.017961 l 7.824962,13.64932 v -13.64932 h 6.001827 v 23.491026 z"
         style="stroke-width:0.82605785px"
         id="path4525"
         inkscape:connector-curvature="0" />
      <path
         d="m 70.089766,-107.71412 q 0,2.74277 -1.129376,4.69497 -1.129376,1.93608 -3.226789,2.93638 -2.097413,1.000305 -4.953121,1.000305 -2.82344,0 -4.95312,-1.000305 -2.113547,-1.01644 -3.291325,-2.95251 -1.161644,-1.95221 -1.161644,-4.67884 v -15.18205 h 6.050229 v 15.18205 q 0,1.98447 0.838965,2.88797 0.838965,0.88737 2.516895,0.88737 1.677931,0 2.484628,-0.88737 0.806697,-0.9035 0.806697,-2.88797 v -15.18205 h 6.017961 z"
         style="stroke-width:0.82605785px"
         id="path4527"
         inkscape:connector-curvature="0" />
      <path
         d="m 85.965567,-122.89617 h 6.856926 l -6.437443,11.64871 6.631051,11.842316 h -6.937596 l -3.694673,-7.647486 -3.710807,7.647486 h -6.921462 l 6.614917,-11.842316 -6.437444,-11.64871 h 6.856926 l 3.59787,7.50229 z"
         style="stroke-width:0.82605785px"
         id="path4529"
         inkscape:connector-curvature="0" />
    </g>
    <g
       aria-label="BITCOIN"
       style="font-style:normal;font-variant:normal;font-weight:normal;font-stretch:normal;font-size:10.58333302px;line-height:6.61458302px;font-family:Heebo;-inkscape-font-specification:Heebo;letter-spacing:0px;word-spacing:0px;fill:#000000;fill-opacity:1;stroke:none;stroke-width:0.26458332px;stroke-linecap:butt;stroke-linejoin:miter;stroke-opacity:1"
       id="text4500"
       transform="matrix(5.4243952,0,0,5.4243952,-605.46642,597.55815)">
      <path
         d="m 153.06484,-97.258016 q 0.61495,0.155029 0.89917,0.589111 0.28422,0.434082 0.28422,0.976685 0,2.242757 -2.87837,2.242757 h -2.31511 -0.73897 v -7.524087 h 2.73368 q 1.45211,0 2.24793,0.53227 0.79582,0.527096 0.79582,1.565792 0,0.552938 -0.24288,0.981852 -0.24288,0.428914 -0.78549,0.63562 z m -2.82153,-2.154907 v 1.565796 h 0.79065 q 0.62529,0 0.8785,-0.1757 0.25321,-0.1757 0.25321,-0.568441 0,-0.439249 -0.26355,-0.630452 -0.26354,-0.191203 -0.85266,-0.191203 z m 1.12655,4.408 q 0.49609,0 0.72347,-0.201539 0.23254,-0.206705 0.23254,-0.521931 0,-0.826823 -0.8785,-0.826823 h -1.20406 v 1.550293 z"
         style="stroke-width:0.26458332px"
         id="path4506"
         inkscape:connector-curvature="0" />
      <path
         d="m 155.31277,-93.449463 v -7.524087 h 1.91719 v 7.524087 z"
         style="stroke-width:0.26458332px"
         id="path4508"
         inkscape:connector-curvature="0" />
      <path
         d="m 164.43883,-99.412923 h -2.24276 v 5.96346 h -1.9327 v -5.96346 h -2.18591 v -1.560627 h 4.11861 2.24276 z"
         style="stroke-width:0.26458332px"
         id="path4510"
         inkscape:connector-curvature="0" />
      <path
         d="m 171.32729,-96.04362 q -0.0258,0.806153 -0.42374,1.421102 -0.39791,0.609782 -1.10071,0.945679 -0.7028,0.330729 -1.62264,0.330729 -1.01286,0 -1.7415,-0.444417 -0.72347,-0.444418 -1.10587,-1.276408 -0.37724,-0.837158 -0.37724,-1.984375 v -0.315226 q 0,-1.136882 0.39274,-1.97404 0.39791,-0.842324 1.11621,-1.291914 0.72347,-0.44958 1.67432,-0.44958 0.97152,0 1.66915,0.3514 0.69763,0.3514 1.08003,0.976683 0.38758,0.620117 0.45476,1.431437 h -1.92237 q -0.005,-0.609782 -0.29972,-0.888835 -0.29455,-0.28422 -0.98185,-0.28422 -0.42892,0 -0.69247,0.201538 -0.26355,0.19637 -0.3979,0.661458 -0.1292,0.45992 -0.1292,1.255737 v 0.325562 q 0,0.826823 0.11886,1.281575 0.12402,0.454753 0.39274,0.645956 0.26872,0.186035 0.74931,0.186035 0.59428,0 0.90951,-0.26355 0.31522,-0.26355 0.32039,-0.842326 z"
         style="stroke-width:0.26458332px"
         id="path4512"
         inkscape:connector-curvature="0" />
      <path
         d="m 178.58267,-97.071981 q 0,1.131714 -0.42375,1.979208 -0.42375,0.842325 -1.17822,1.297078 -0.75448,0.449585 -1.72083,0.449585 -0.98185,0 -1.74149,-0.449585 -0.75448,-0.454753 -1.17823,-1.297078 -0.41858,-0.847494 -0.41858,-1.979208 v -0.273885 q 0,-1.131714 0.41858,-1.974039 0.42375,-0.847495 1.17823,-1.302245 0.75447,-0.45475 1.73116,-0.45475 0.96635,0 1.72082,0.45475 0.75965,0.45475 1.18339,1.302245 0.42892,0.842325 0.42892,1.974039 z m -1.96888,-0.28422 q 0,-1.043864 -0.35656,-1.591634 -0.3514,-0.552938 -1.00769,-0.552938 -1.35909,0 -1.35909,2.144572 v 0.28422 q 0,1.043864 0.34106,1.60197 0.34623,0.552937 1.02836,0.552937 0.65113,0 1.00253,-0.563273 0.35139,-0.563273 0.35139,-1.591634 z"
         style="stroke-width:0.26458332px"
         id="path4514"
         inkscape:connector-curvature="0" />
      <path
         d="m 179.58002,-93.449463 v -7.524087 h 1.9172 v 7.524087 z"
         style="stroke-width:0.26458332px"
         id="path4516"
         inkscape:connector-curvature="0" />
      <path
         d="m 187.12995,-93.449463 -2.51148,-4.376994 v 4.376994 h -1.92753 v -7.524087 h 1.92753 l 2.50631,4.371825 v -4.371825 h 1.92236 v 7.524087 z"
         style="stroke-width:0.26458332px"
         id="path4518"
         inkscape:connector-curvature="0" />
    </g>
    <g
       id="g4656"
       transform="translate(-1.9146599e-8,-3.1750001)" />
    <path
       style="opacity:1;fill:#000000;fill-opacity:1;stroke:none;stroke-width:0.96462655;stroke-linecap:round;stroke-linejoin:round;stroke-miterlimit:4;stroke-dasharray:none;stroke-dashoffset:0.25;stroke-opacity:1"
       d="m 185.26156,70.055343 a 5.1969065,5.1969065 0 0 1 -5.19692,5.196898 5.1969065,5.1969065 0 0 1 -5.19689,-5.196898 5.1969065,5.1969065 0 0 1 5.19689,-5.196855 5.1969065,5.1969065 0 0 1 5.19692,5.196855 z"
       id="path4658"
       inkscape:connector-curvature="0" />
    <g
       transform="matrix(4.1519772,0,0,4.1519797,-663.01596,40.802138)"
       id="text4504"
       style="font-style:normal;font-variant:normal;font-weight:normal;font-stretch:normal;font-size:10.58333302px;line-height:6.61458302px;font-family:Heebo;-inkscape-font-specification:Heebo;letter-spacing:0px;word-spacing:0px;fill:#000000;fill-opacity:1;stroke:none;stroke-width:0.26458332px;stroke-linecap:butt;stroke-linejoin:miter;stroke-opacity:1"
       aria-label="TOR">
      <path
         inkscape:connector-curvature="0"
         id="path4557"
         style="stroke-width:0.26458332px"
         d="m 166.04819,16.247786 h -2.24276 v 5.96346 h -1.9327 v -5.96346 h -2.18591 v -1.560628 h 4.11861 2.24276 z" />
      <path
         inkscape:connector-curvature="0"
         id="path4559"
         style="stroke-width:0.26458332px"
         d="m 172.93666,18.588729 q 0,1.131714 -0.42375,1.979207 -0.42375,0.842326 -1.17822,1.297078 -0.75448,0.449585 -1.72083,0.449585 -0.98185,0 -1.74149,-0.449585 -0.75448,-0.454752 -1.17823,-1.297078 -0.41858,-0.847493 -0.41858,-1.979207 v -0.273885 q 0,-1.131714 0.41858,-1.97404 0.42375,-0.847494 1.17823,-1.302246 0.75447,-0.454753 1.73116,-0.454753 0.96634,0 1.72082,0.454753 0.75964,0.454752 1.18339,1.302246 0.42892,0.842326 0.42892,1.97404 z m -1.96888,-0.284221 q 0,-1.043864 -0.35656,-1.591634 -0.3514,-0.552938 -1.00769,-0.552938 -1.35909,0 -1.35909,2.144572 v 0.284221 q 0,1.043864 0.34106,1.601969 0.34623,0.552938 1.02836,0.552938 0.65112,0 1.00252,-0.563273 0.3514,-0.563273 0.3514,-1.591634 z" />
      <path
         inkscape:connector-curvature="0"
         id="path4561"
         style="stroke-width:0.26458332px"
         d="m 179.95431,22.128564 v 0.08268 h -2.06705 l -1.26607,-2.54248 h -0.89401 v 2.54248 h -1.92753 v -7.524088 h 3.03341 q 0.8785,0 1.52445,0.26355 0.64596,0.258382 0.99736,0.769979 0.35657,0.511596 0.35657,1.240234 0,0.868164 -0.33073,1.369426 -0.32556,0.496093 -0.96119,0.81132 z m -4.22713,-4.025594 h 1.10588 q 0.47025,0 0.70797,-0.232544 0.24287,-0.237711 0.24287,-0.692464 0,-0.444417 -0.24804,-0.687296 -0.24805,-0.24288 -0.7028,-0.24288 h -1.10588 z" />
    </g>
    <g
       transform="matrix(0.56543284,0,0,0.56543284,8.0732787,130.18405)"
       aria-label="SECURITY"
       style="font-style:normal;font-variant:normal;font-weight:normal;font-stretch:normal;font-size:77.66139984px;line-height:48.53837204px;font-family:Heebo;-inkscape-font-specification:Heebo;letter-spacing:0px;word-spacing:0px;fill:#000000;fill-opacity:1;stroke:none;stroke-width:1.94153488px;stroke-linecap:butt;stroke-linejoin:miter;stroke-opacity:1"
       id="text4566">
      <path
         d="m 381.58009,-18.708963 q -5.61225,-1.89603 -9.66976,-4.095426 -4.0575,-2.237315 -6.67402,-5.68809 -2.5786,-3.450775 -2.5786,-8.304613 0,-4.777996 2.7682,-8.304613 2.80613,-3.526616 7.7358,-5.422646 4.92968,-1.89603 11.11074,-1.89603 6.02938,0 10.73153,2.047712 4.70216,2.047713 7.3566,5.953535 2.69236,3.867902 2.69236,9.252628 h -14.10646 q 0,-2.806125 -1.82019,-4.436711 -1.78227,-1.668506 -5.19512,-1.668506 -2.27524,0 -3.90583,0.64465 -1.63058,0.64465 -2.46484,1.706427 -0.83425,1.023857 -0.83425,2.275236 0,2.085634 2.389,3.564537 2.42692,1.478904 7.39452,3.10949 9.13886,2.957807 13.8031,7.356597 4.70215,4.398791 4.70215,11.2245 0,5.0055196 -2.54068,8.5321359 -2.54068,3.5266163 -7.16699,5.3468054 -4.62632,1.820189 -10.88322,1.820189 -6.10521,0 -11.45202,-2.0097921 -5.30888,-2.04771266 -8.6459,-6.3706617 -3.33701,-4.322949 -3.33701,-10.8452935 h 14.22023 q 0,3.071569 0.98593,4.853838 1.02386,1.7822683 3.03365,2.5406804 2.00979,0.7204915 5.19512,0.7204915 3.2991,0 4.85384,-1.2893005 1.59267,-1.3272212 1.59267,-3.2232514 0,-1.630586 -0.68257,-2.730284 -0.68257,-1.137618 -2.69237,-2.237315 -1.97187,-1.099698 -5.91561,-2.426919 z"
         style="stroke-width:1.94153488px"
         id="path4602"
         inkscape:connector-curvature="0" />
      <path
         d="m 425.64383,-40.209946 v 9.973119 h 20.51505 v 10.996975 H 425.64383 V -7.86367 h 24.30711 V 3.5504322 h -29.50223 -8.94926 V -51.661969 h 14.14438 24.45879 v 11.452023 z"
         style="stroke-width:1.94153488px"
         id="path4604"
         inkscape:connector-curvature="0" />
      <path
         d="m 500.1199,-15.485712 q -0.1896,5.9156147 -3.10949,10.4281668 -2.91988,4.47463142 -8.07709,6.9394708 -5.1572,2.4269187 -11.90707,2.4269187 -7.43244,0 -12.77924,-3.2611721 -5.30889,-3.261172 -8.11501,-9.3663895 -2.7682,-6.1431377 -2.7682,-14.5615127 v -2.313157 q 0,-8.342533 2.88196,-14.485671 2.91989,-6.181059 8.19085,-9.480151 5.30889,-3.299093 12.28628,-3.299093 7.12907,0 12.24835,2.578601 5.11929,2.578601 7.92541,7.166995 2.84405,4.550472 3.33701,10.504007 H 486.1272 q -0.0379,-4.474631 -2.1994,-6.522344 -2.16147,-2.085633 -7.20491,-2.085633 -3.14741,0 -5.08136,1.478904 -1.93395,1.440983 -2.91989,4.853837 -0.94801,3.374934 -0.94801,9.214707 v 2.388998 q 0,6.067297 0.87217,9.40431 0.91009,3.337014 2.88197,4.7400761 1.97187,1.3651418 5.49848,1.3651418 4.36087,0 6.67403,-1.9339509 2.31316,-1.933951 2.35108,-6.181059 z"
         style="stroke-width:1.94153488px"
         id="path4606"
         inkscape:connector-curvature="0" />
      <path
         d="m 549.94758,-15.97868 q 0,6.4465033 -2.65444,11.0348966 -2.65444,4.55047264 -7.58412,6.9015502 -4.92968,2.3510775 -11.64163,2.3510775 -6.6361,0 -11.64162,-2.3510775 -4.9676,-2.38899816 -7.73581,-6.9394708 -2.73028,-4.5883933 -2.73028,-10.996976 v -35.683289 h 14.22023 v 35.683289 q 0,4.664235 1.97187,6.7877888 1.97187,2.0856333 5.91561,2.0856333 3.94375,0 5.83978,-2.0856333 1.89603,-2.1235538 1.89603,-6.7877888 v -35.683289 h 14.14438 z"
         style="stroke-width:1.94153488px"
         id="path4608"
         inkscape:connector-curvature="0" />
      <path
         d="m 603.03642,2.9437025 v 0.6067297 h -15.16824 l -9.29055,-18.6569382 h -6.56026 V 3.5504322 H 557.87298 V -51.661969 h 22.2594 q 6.4465,0 11.18658,1.933951 4.74007,1.89603 7.31867,5.65017 2.61653,3.75414 2.61653,9.100945 0,6.370662 -2.42692,10.048961 -2.389,3.640378 -7.05324,5.953535 z M 572.01737,-26.596449 h 8.11501 q 3.45077,0 5.19512,-1.706427 1.78227,-1.744348 1.78227,-5.081361 0,-3.261173 -1.82019,-5.043441 -1.82019,-1.782268 -5.1572,-1.782268 h -8.11501 z"
         style="stroke-width:1.94153488px"
         id="path4610"
         inkscape:connector-curvature="0" />
      <path
         d="M 609.97591,3.5504322 V -51.661969 h 14.06854 V 3.5504322 Z"
         style="stroke-width:1.94153488px"
         id="path4612"
         inkscape:connector-curvature="0" />
      <path
         d="M 676.9437,-40.209946 H 660.48616 V 3.5504322 h -14.1823 V -40.209946 h -16.04042 v -11.452023 h 30.22272 16.45754 z"
         style="stroke-width:1.94153488px"
         id="path4614"
         inkscape:connector-curvature="0" />
      <path
         d="m 713.30956,-51.661969 h 15.20617 l -17.59517,35.607448 V 3.5504322 H 696.51073 V -16.054521 l -17.63308,-35.607448 h 15.20617 l 9.63183,22.979887 z"
         style="stroke-width:1.94153488px"
         id="path4616"
         inkscape:connector-curvature="0" />
    </g>
    <g
       aria-label="P2P"
       style="font-style:normal;font-variant:normal;font-weight:normal;font-stretch:normal;font-size:31.47284317px;line-height:19.6705265px;font-family:Heebo;-inkscape-font-specification:Heebo;letter-spacing:0px;word-spacing:0px;fill:#000000;fill-opacity:1;stroke:none;stroke-width:0.78682107px;stroke-linecap:butt;stroke-linejoin:miter;stroke-opacity:1"
       id="text4590"
       transform="matrix(1.4141414,0,0,1.4141414,-3.1031222e-6,173.78371)">
      <path
         d="m 85.771488,-50.895501 q 2.643227,0 4.641015,1.014261 1.997788,0.998894 3.07352,2.781536 1.075732,1.767273 1.075732,4.010943 0,2.151464 -1.075732,3.811165 -1.075732,1.6597 -3.07352,2.581756 -1.98242,0.922056 -4.641015,0.922056 h -3.288666 v 7.253507 h -5.732115 v -22.375224 z m 0,10.465335 q 1.506025,0 2.24367,-0.70691 0.737644,-0.722277 0.737644,-1.92095 0,-1.383084 -0.753012,-2.289772 -0.753012,-0.906689 -2.228302,-0.906689 h -3.288666 v 5.824321 z"
         style="stroke-width:0.78682107px"
         id="path4826"
         inkscape:connector-curvature="0" />
      <path
         d="m 97.097409,-28.520277 v -3.749694 l 7.161301,-7.391815 q 1.27551,-1.398452 1.90558,-2.535654 0.64544,-1.137203 0.64544,-1.905583 0,-1.367716 -0.58397,-2.013155 -0.5686,-0.645439 -1.69043,-0.645439 -0.69155,0 -1.22941,0.430292 -0.53787,0.430293 -0.84522,1.167938 -0.30735,0.737645 -0.30735,1.628966 h -5.532337 q 0,-2.089994 1.029629,-3.8419 1.044997,-1.767274 2.889108,-2.796903 1.84411,-1.044997 4.14925,-1.044997 3.76506,0 5.70138,1.721171 1.93632,1.705804 1.93632,4.917632 0,1.567495 -0.63007,2.981314 -0.63007,1.398452 -1.76728,2.781536 -1.1372,1.383083 -3.15035,3.426974 l -2.39735,2.412713 h 8.45218 v 4.456604 z"
         style="stroke-width:0.78682107px"
         id="path4828"
         inkscape:connector-curvature="0" />
      <path
         d="m 124.68225,-50.895501 q 2.64322,0 4.64101,1.014261 1.99779,0.998894 3.07352,2.781536 1.07573,1.767273 1.07573,4.010943 0,2.151464 -1.07573,3.811165 -1.07573,1.6597 -3.07352,2.581756 -1.98242,0.922056 -4.64101,0.922056 h -3.28867 v 7.253507 h -5.73211 v -22.375224 z m 0,10.465335 q 1.50602,0 2.24367,-0.70691 0.73764,-0.722277 0.73764,-1.92095 0,-1.383084 -0.75301,-2.289772 -0.75301,-0.906689 -2.2283,-0.906689 h -3.28867 v 5.824321 z"
         style="stroke-width:0.78682107px"
         id="path4830"
         inkscape:connector-curvature="0" />
    </g>
    <path
       inkscape:connector-curvature="0"
       id="path4663"
       d="m 203.63505,117.67191 a 3.7995903,3.7995903 0 0 1 -3.79961,3.79961 3.7995903,3.7995903 0 0 1 -3.79959,-3.79961 3.7995903,3.7995903 0 0 1 3.79959,-3.79957 3.7995903,3.7995903 0 0 1 3.79961,3.79957 z"
       style="opacity:1;fill:#000000;fill-opacity:1;stroke:none;stroke-width:0.70526296;stroke-linecap:round;stroke-linejoin:round;stroke-miterlimit:4;stroke-dasharray:none;stroke-dashoffset:0.25;stroke-opacity:1" />
    <path
       style="opacity:1;fill:#000000;fill-opacity:1;stroke:none;stroke-width:0.70526296;stroke-linecap:round;stroke-linejoin:round;stroke-miterlimit:4;stroke-dasharray:none;stroke-dashoffset:0.25;stroke-opacity:1"
       d="m 99.049654,117.67191 a 3.7995903,3.7995903 0 0 1 -3.799616,3.79961 3.7995903,3.7995903 0 0 1 -3.799573,-3.79961 3.7995903,3.7995903 0 0 1 3.799573,-3.79957 3.7995903,3.7995903 0 0 1 3.799616,3.79957 z"
       id="path4665"
       inkscape:connector-curvature="0" />
    <g
       id="g4709"
       transform="matrix(1.4141414,0,0,1.4141414,-3.1031222e-6,192.19399)">
      <g
         id="g4600"
         transform="matrix(0.44177936,0,0,0.44177936,1.3160396e-5,-24.597451)">
        <g
           aria-label="OPEN SOURCE"
           style="font-style:normal;font-variant:normal;font-weight:normal;font-stretch:normal;font-size:56.91954422px;line-height:35.57471466px;font-family:Heebo;-inkscape-font-specification:Heebo;letter-spacing:0px;word-spacing:0px;fill:#000000;fill-opacity:1;stroke:none;stroke-width:1.42298853px;stroke-linecap:butt;stroke-linejoin:miter;stroke-opacity:1"
           id="text4578">
          <path
             d="m 35.82482,43.429284 q 0,6.086611 -2.279005,10.644621 -2.279005,4.530218 -6.336746,6.97598 -4.057741,2.417969 -9.254985,2.417969 -5.280622,0 -9.3661553,-2.417969 Q 4.5301877,58.604123 2.2511825,54.073905 -2.9910356e-5,49.515895 -2.9910356e-5,43.429284 v -1.473016 q 0,-6.086611 2.251212410356,-10.616829 2.2790052,-4.55801 6.3367462,-7.003772 4.0577413,-2.445762 9.3105703,-2.445762 5.197243,0 9.254984,2.445762 4.085534,2.445762 6.364539,7.003772 2.306798,4.530218 2.306798,10.616829 z M 25.235784,41.900683 q 0,-5.614135 -1.9177,-8.560166 -1.889907,-2.973824 -5.419585,-2.973824 -7.309493,0 -7.309493,11.53399 v 1.528601 q 0,5.614134 1.834322,8.615751 1.862114,2.973824 5.530756,2.973824 3.501886,0 5.391793,-3.02941 1.889907,-3.029409 1.889907,-8.560165 z"
             style="stroke-width:1.42298853px"
             id="path4790"
             inkscape:connector-curvature="0" />
          <path
             d="m 56.780552,22.44576 q 4.780353,0 8.39341,1.834322 3.613057,1.806528 5.558549,5.030487 1.945492,3.196165 1.945492,7.253906 0,3.890985 -1.945492,6.892601 -1.945492,3.001617 -5.558549,4.669182 -3.585265,1.667565 -8.39341,1.667565 H 50.832905 V 62.911999 H 40.46621 V 22.44576 Z m 0,18.92686 q 2.723689,0 4.057741,-1.278466 1.334052,-1.306259 1.334052,-3.474093 0,-2.501347 -1.361845,-4.141119 -1.361844,-1.639772 -4.029948,-1.639772 h -5.947647 v 10.53345 z"
             style="stroke-width:1.42298853px"
             id="path4792"
             inkscape:connector-curvature="0" />
          <path
             d="m 88.075184,30.83917 v 7.309492 h 15.035876 v 8.059896 H 88.075184 v 8.337824 h 17.815146 v 8.365617 H 84.267577 77.708489 V 22.44576 H 88.075184 106.0015 v 8.39341 z"
             style="stroke-width:1.42298853px"
             id="path4794"
             inkscape:connector-curvature="0" />
          <path
             d="M 133.37736,62.911999 119.87008,39.371543 V 62.911999 H 109.50339 V 22.44576 h 10.36669 l 13.47948,23.512664 V 22.44576 h 10.33891 v 40.466239 z"
             style="stroke-width:1.42298853px"
             id="path4796"
             inkscape:connector-curvature="0" />
          <path
             d="m 177.62341,46.597657 q -4.11332,-1.389638 -7.08715,-3.001617 -2.97382,-1.639772 -4.89152,-4.168912 -1.88991,-2.52914 -1.88991,-6.086611 0,-3.501886 2.02887,-6.086612 2.05667,-2.584725 5.66972,-3.974362 3.61306,-1.389638 8.14328,-1.389638 4.41905,0 7.86535,1.500809 3.4463,1.500808 5.39179,4.363461 1.97328,2.83486 1.97328,6.78143 h -10.3389 q 0,-2.056663 -1.33405,-3.251751 -1.30626,-1.222881 -3.80761,-1.222881 -1.66756,0 -2.86265,0.472476 -1.19509,0.472477 -1.80653,1.250674 -0.61144,0.750404 -0.61144,1.667565 0,1.528601 1.75095,2.612518 1.77873,1.083917 5.41958,2.279005 6.69805,2.167834 10.11656,5.391793 3.4463,3.223958 3.4463,8.226653 0,3.668642 -1.86211,6.253368 -1.86212,2.584725 -5.25283,3.918777 -3.39072,1.334052 -7.97652,1.334052 -4.47463,0 -8.39341,-1.473016 -3.89098,-1.500808 -6.33675,-4.669181 -2.44576,-3.168373 -2.44576,-7.948726 h 10.42228 q 0,2.251213 0.72261,3.557472 0.75041,1.306259 2.22342,1.862114 1.47302,0.528062 3.80761,0.528062 2.41797,0 3.55747,-0.944953 1.1673,-0.972746 1.1673,-2.362384 0,-1.195088 -0.50027,-2.001077 -0.50027,-0.833783 -1.97329,-1.639773 -1.44522,-0.805989 -4.33567,-1.778735 z"
             style="stroke-width:1.42298853px"
             id="path4798"
             inkscape:connector-curvature="0" />
          <path
             d="m 234.26504,43.429284 q 0,6.086611 -2.27901,10.644621 -2.279,4.530218 -6.33675,6.97598 -4.05774,2.417969 -9.25498,2.417969 -5.28062,0 -9.36616,-2.417969 -4.05774,-2.445762 -6.33674,-6.97598 -2.25121,-4.55801 -2.25121,-10.644621 v -1.473016 q 0,-6.086611 2.25121,-10.616829 2.279,-4.55801 6.33674,-7.003772 4.05775,-2.445762 9.31057,-2.445762 5.19725,0 9.25499,2.445762 4.08553,2.445762 6.36454,7.003772 2.3068,4.530218 2.3068,10.616829 z M 223.676,41.900683 q 0,-5.614135 -1.9177,-8.560166 -1.88991,-2.973824 -5.41959,-2.973824 -7.30949,0 -7.30949,11.53399 v 1.528601 q 0,5.614134 1.83432,8.615751 1.86212,2.973824 5.53076,2.973824 3.50189,0 5.39179,-3.02941 1.88991,-3.029409 1.88991,-8.560165 z"
             style="stroke-width:1.42298853px"
             id="path4800"
             inkscape:connector-curvature="0" />
          <path
             d="m 271.11821,48.598734 q 0,4.724767 -1.94549,8.08769 -1.94549,3.335129 -5.55855,5.058279 -3.61306,1.723151 -8.53237,1.723151 -4.86373,0 -8.53238,-1.723151 -3.64085,-1.750943 -5.66972,-5.086072 -2.00107,-3.362922 -2.00107,-8.059897 V 22.44576 h 10.42228 v 26.152974 q 0,3.418508 1.44522,4.974902 1.44522,1.528601 4.33567,1.528601 2.89044,0 4.28008,-1.528601 1.38964,-1.556394 1.38964,-4.974902 V 22.44576 h 10.36669 z"
             style="stroke-width:1.42298853px"
             id="path4802"
             inkscape:connector-curvature="0" />
          <path
             d="m 310.02806,62.467315 v 0.444684 h -11.1171 l -6.80922,-13.674031 h -4.80815 V 62.911999 H 276.9269 V 22.44576 h 16.31434 q 4.72476,0 8.19886,1.41743 3.47409,1.389638 5.364,4.14112 1.9177,2.751481 1.9177,6.670259 0,4.669181 -1.77874,7.365077 -1.75094,2.668104 -5.16945,4.363462 z M 287.29359,40.816766 h 5.94765 q 2.52914,0 3.8076,-1.250674 1.30626,-1.278466 1.30626,-3.724228 0,-2.390176 -1.33405,-3.696435 -1.33405,-1.306259 -3.77981,-1.306259 h -5.94765 z"
             style="stroke-width:1.42298853px"
             id="path4804"
             inkscape:connector-curvature="0" />
          <path
             d="m 347.54827,48.96004 q -0.13896,4.335669 -2.279,7.643005 -2.14004,3.279544 -5.91986,5.086073 -3.77981,1.778736 -8.72692,1.778736 -5.44738,0 -9.36616,-2.390177 -3.89098,-2.390176 -5.94764,-6.864808 -2.02887,-4.502425 -2.02887,-10.672414 v -1.695358 q 0,-6.114404 2.11224,-10.616829 2.14005,-4.530218 6.00324,-6.948186 3.89098,-2.417969 9.00485,-2.417969 5.22503,0 8.97705,1.889906 3.75203,1.889907 5.80869,5.252829 2.08445,3.33513 2.44576,7.698591 h -10.3389 q -0.0278,-3.279544 -1.61198,-4.780352 -1.58419,-1.528601 -5.28062,-1.528601 -2.3068,0 -3.72423,1.083917 -1.41743,1.056124 -2.14004,3.557471 -0.69482,2.473555 -0.69482,6.753638 v 1.750943 q 0,4.446839 0.63923,6.892601 0.66703,2.445761 2.11225,3.474093 1.44522,1.000539 4.02995,1.000539 3.19617,0 4.89152,-1.41743 1.69536,-1.41743 1.72315,-4.530218 z"
             style="stroke-width:1.42298853px"
             id="path4806"
             inkscape:connector-curvature="0" />
          <path
             d="m 362.22285,30.83917 v 7.309492 h 15.03588 v 8.059896 h -15.03588 v 8.337824 H 380.038 v 8.365617 h -21.62276 -6.55908 V 22.44576 h 10.36669 17.92632 v 8.39341 z"
             style="stroke-width:1.42298853px"
             id="path4808"
             inkscape:connector-curvature="0" />
        </g>
        <g
           aria-label="TORRENT"
           style="font-style:normal;font-variant:normal;font-weight:normal;font-stretch:normal;font-size:56.95759201px;line-height:35.59849548px;font-family:Heebo;-inkscape-font-specification:Heebo;letter-spacing:0px;word-spacing:0px;fill:#000000;fill-opacity:1;stroke:none;stroke-width:1.42393982px;stroke-linecap:butt;stroke-linejoin:miter;stroke-opacity:1"
           id="text4594">
          <path
             d="M 451.45935,30.817479 H 439.38924 V 62.911747 H 428.9878 V 30.817479 h -11.76419 v -8.39902 h 22.16563 12.07011 z"
             style="stroke-width:1.42393982px"
             id="path4811"
             inkscape:connector-curvature="0" />
          <path
             d="m 488.53185,43.416009 q 0,6.09068 -2.28053,10.651737 -2.28053,4.533246 -6.34098,6.980642 -4.06046,2.419585 -9.26117,2.419585 -5.28416,0 -9.37242,-2.419585 -4.06045,-2.447396 -6.34098,-6.980642 -2.25272,-4.561057 -2.25272,-10.651737 v -1.474 q 0,-6.09068 2.25272,-10.623926 2.28053,-4.561058 6.34098,-7.008454 4.06045,-2.447397 9.31679,-2.447397 5.20072,0 9.26117,2.447397 4.08827,2.447396 6.3688,7.008454 2.30834,4.533246 2.30834,10.623926 z m -10.59612,-1.529623 q 0,-5.617888 -1.91898,-8.565888 -1.89117,-2.975812 -5.42321,-2.975812 -7.31438,0 -7.31438,11.5417 v 1.529623 q 0,5.617887 1.83555,8.62151 1.86336,2.975812 5.53446,2.975812 3.50422,0 5.39539,-3.031434 1.89117,-3.031435 1.89117,-8.565888 z"
             style="stroke-width:1.42393982px"
             id="path4813"
             inkscape:connector-curvature="0" />
          <path
             d="m 526.29963,62.466766 v 0.444981 H 515.1751 l -6.81378,-13.683172 h -4.81136 V 62.911747 H 493.17634 V 22.418459 h 16.32525 q 4.72792,0 8.20434,1.418377 3.47641,1.390567 5.36758,4.143888 1.91898,2.753321 1.91898,6.674718 0,4.672302 -1.77992,7.37 -1.75211,2.669888 -5.17291,4.366378 z M 503.54996,40.801744 h 5.95163 q 2.53083,0 3.81015,-1.251509 1.30713,-1.279321 1.30713,-3.726718 0,-2.391774 -1.33494,-3.698906 -1.33495,-1.307132 -3.78234,-1.307132 h -5.95163 z"
             style="stroke-width:1.42393982px"
             id="path4815"
             inkscape:connector-curvature="0" />
          <path
             d="m 563.7893,62.466766 v 0.444981 h -11.12453 l -6.81378,-13.683172 h -4.81136 V 62.911747 H 530.66601 V 22.418459 h 16.32525 q 4.72792,0 8.20434,1.418377 3.47641,1.390567 5.36758,4.143888 1.91898,2.753321 1.91898,6.674718 0,4.672302 -1.77992,7.37 -1.75211,2.669888 -5.17291,4.366378 z M 541.03963,40.801744 h 5.95163 q 2.53083,0 3.81015,-1.251509 1.30713,-1.279321 1.30713,-3.726718 0,-2.391774 -1.33494,-3.698906 -1.33495,-1.307132 -3.78234,-1.307132 h -5.95163 z"
             style="stroke-width:1.42393982px"
             id="path4817"
             inkscape:connector-curvature="0" />
          <path
             d="m 578.52929,30.817479 v 7.314378 h 15.04592 v 8.065284 h -15.04592 v 8.343397 h 17.82706 v 8.371209 h -21.63721 -6.56348 V 22.418459 h 10.37363 17.9383 v 8.39902 z"
             style="stroke-width:1.42393982px"
             id="path4819"
             inkscape:connector-curvature="0" />
          <path
             d="M 623.86175,62.911747 610.34545,39.355555 V 62.911747 H 599.97183 V 22.418459 h 10.37362 l 13.48849,23.52838 v -23.52838 h 10.34581 v 40.493288 z"
             style="stroke-width:1.42393982px"
             id="path4821"
             inkscape:connector-curvature="0" />
          <path
             d="M 672.28126,30.817479 H 660.21115 V 62.911747 H 649.80971 V 30.817479 h -11.76419 v -8.39902 h 22.16563 12.07011 z"
             style="stroke-width:1.42393982px"
             id="path4823"
             inkscape:connector-curvature="0" />
        </g>
      </g>
      <path
         inkscape:connector-curvature="0"
         id="path4667"
         d="m 178.60287,-5.281906 a 2.2717909,2.2717909 0 0 1 -2.27181,2.2717999 2.2717909,2.2717909 0 0 1 -2.27178,-2.2717999 2.2717909,2.2717909 0 0 1 2.27178,-2.2717817 2.2717909,2.2717909 0 0 1 2.27181,2.2717817 z"
         style="opacity:1;fill:#000000;fill-opacity:1;stroke:none;stroke-width:0.42167968;stroke-linecap:round;stroke-linejoin:round;stroke-miterlimit:4;stroke-dasharray:none;stroke-dashoffset:0.25;stroke-opacity:1" />
    </g>
    <g
       id="g4740"
       transform="matrix(1.7566769,0,0,1.7566769,-3.1031222e-6,175.20156)">
      <g
         aria-label="DECENTRALIZED"
         style="font-style:normal;font-variant:normal;font-weight:normal;font-stretch:normal;font-size:16.57525635px;line-height:10.35953426px;font-family:Heebo;-inkscape-font-specification:Heebo;letter-spacing:0px;word-spacing:0px;fill:#000000;fill-opacity:1;stroke:none;stroke-width:0.41438133px;stroke-linecap:butt;stroke-linejoin:miter;stroke-opacity:1"
         id="text4582">
        <path
           d="m 3.8605455,-18.854457 q 1.5863039,0 2.8326855,0.728404 1.2544749,0.728405 1.9585996,2.023347 0.712218,1.294942 0.712218,2.921713 v 0.445136 q 0,1.626771 -0.7041246,2.9217128 -0.7041247,1.2868485 -1.9424129,2.0152533 -1.2382882,0.7284048 -2.7841251,0.7284048 H 1.2868485 0 V -18.854457 h 3.0188333 z m 2.4118293,5.657277 q 0,-1.586304 -0.6150974,-2.395642 Q 5.04218,-16.410255 3.8605455,-16.410255 H 3.0188333 v 6.9036595 H 3.933386 q 1.1249808,0 1.7319848,-0.8093385 0.607004,-0.809339 0.607004,-2.419923 z"
           style="stroke-width:0.41438133px"
           id="path4742"
           inkscape:connector-curvature="0" />
        <path
           d="m 13.734477,-16.410255 v 2.128561 h 4.378522 v 2.347082 h -4.378522 v 2.4280165 h 5.187861 v 2.4361094 H 12.625683 10.715644 V -18.854457 h 3.018833 5.220235 v 2.444202 z"
           style="stroke-width:0.41438133px"
           id="path4744"
           inkscape:connector-curvature="0" />
        <path
           d="m 29.62989,-11.133366 q -0.04047,1.2625681 -0.663657,2.2256811 -0.623191,0.9550197 -1.723892,1.4810898 -1.100701,0.5179768 -2.541323,0.5179768 -1.586304,0 -2.727472,-0.6960313 -1.133074,-0.6960313 -1.731985,-1.9990666 -0.590817,-1.3111288 -0.590817,-3.1078608 v -0.493696 q 0,-1.780545 0.615098,-3.091674 0.62319,-1.319222 1.748171,-2.023347 1.133074,-0.704125 2.622258,-0.704125 1.521556,0 2.614163,0.550351 1.092608,0.55035 1.691518,1.52965 0.607004,0.971206 0.712218,2.241868 h -3.01074 q -0.0081,-0.95502 -0.469416,-1.392062 -0.461323,-0.445137 -1.537743,-0.445137 -0.671752,0 -1.084514,0.315642 -0.412763,0.307549 -0.623191,1.035954 -0.202335,0.720311 -0.202335,1.966693 v 0.509883 q 0,1.294942 0.186148,2.00716 0.194241,0.7122183 0.615098,1.0116736 0.420856,0.2913619 1.173541,0.2913619 0.930739,0 1.424436,-0.4127627 0.493696,-0.4127628 0.50179,-1.3192218 z"
           style="stroke-width:0.41438133px"
           id="path4746"
           inkscape:connector-curvature="0" />
        <path
           d="m 33.903198,-16.410255 v 2.128561 h 4.378523 v 2.347082 h -4.378523 v 2.4280165 h 5.187861 v 2.4361094 H 32.794404 30.884365 V -18.854457 h 3.018833 5.220235 v 2.444202 z"
           style="stroke-width:0.41438133px"
           id="path4748"
           inkscape:connector-curvature="0" />
        <path
           d="m 47.095419,-7.0704861 -3.933386,-6.8550989 v 6.8550989 H 40.1432 V -18.854457 h 3.018833 l 3.925293,6.847005 v -6.847005 h 3.01074 v 11.7839709 z"
           style="stroke-width:0.41438133px"
           id="path4750"
           inkscape:connector-curvature="0" />
        <path
           d="m 61.186007,-16.410255 h -3.51253 v 9.3397689 H 54.64655 v -9.3397689 h -3.423502 v -2.444202 h 6.450429 3.51253 z"
           style="stroke-width:0.41438133px"
           id="path4752"
           inkscape:connector-curvature="0" />
        <path
           d="m 71.958304,-7.1999803 v 0.1294942 H 68.720949 L 66.73807,-11.052432 h -1.400156 v 3.9819459 H 62.31908 V -18.854457 h 4.750818 q 1.375876,0 2.38755,0.412762 1.011673,0.40467 1.562023,1.205915 0.558444,0.801245 0.558444,1.942413 0,1.359689 -0.517977,2.144747 -0.509883,0.776966 -1.50537,1.270662 z m -6.62039,-6.3047487 h 1.731984 q 0.736499,0 1.108794,-0.364202 0.38039,-0.372296 0.38039,-1.084514 0,-0.696031 -0.388483,-1.07642 -0.388482,-0.38039 -1.100701,-0.38039 h -1.731984 z"
           style="stroke-width:0.41438133px"
           id="path4754"
           inkscape:connector-curvature="0" />
        <path
           d="m 80.067879,-9.0209923 h -3.787705 l -0.59891,1.9505062 h -3.245449 l 4.297589,-11.7839709 h 2.05572 0.809339 l 4.321868,11.7839709 H 80.66679 Z m -0.752685,-2.4442027 -1.149261,-3.722958 -1.141167,3.722958 z"
           style="stroke-width:0.41438133px"
           id="path4756"
           inkscape:connector-curvature="0" />
        <path
           d="m 92.564067,-9.5065955 v 2.4361094 h -5.964826 -1.91004 V -18.854457 h 3.018834 v 9.3478615 z"
           style="stroke-width:0.41438133px"
           id="path4758"
           inkscape:connector-curvature="0" />
        <path
           d="M 93.899477,-7.0704861 V -18.854457 h 3.002646 v 11.7839709 z"
           style="stroke-width:0.41438133px"
           id="path4760"
           inkscape:connector-curvature="0" />
        <path
           d="m 107.73107,-7.0704861 h -8.619457 -0.647471 v -1.5782104 l 5.414478,-7.7615585 h -5.471132 v -2.444202 h 8.352372 0.94693 v 1.52965 l -5.35782,7.8182115 h 5.3821 z"
           style="stroke-width:0.41438133px"
           id="path4762"
           inkscape:connector-curvature="0" />
        <path
           d="m 111.92345,-16.410255 v 2.128561 h 4.37852 v 2.347082 h -4.37852 v 2.4280165 h 5.18786 v 2.4361094 h -6.29665 -1.91004 V -18.854457 h 3.01883 5.22024 v 2.444202 z"
           style="stroke-width:0.41438133px"
           id="path4764"
           inkscape:connector-curvature="0" />
        <path
           d="m 122.024,-18.854457 q 1.5863,0 2.83268,0.728404 1.25448,0.728405 1.9586,2.023347 0.71222,1.294942 0.71222,2.921713 v 0.445136 q 0,1.626771 -0.70412,2.9217128 -0.70413,1.2868485 -1.94242,2.0152533 -1.23828,0.7284048 -2.78412,0.7284048 h -2.64654 -1.28685 V -18.854457 h 3.01884 z m 2.41183,5.657277 q 0,-1.586304 -0.6151,-2.395642 -0.6151,-0.817433 -1.79673,-0.817433 h -0.84171 v 6.9036595 h 0.91455 q 1.12498,0 1.73198,-0.8093385 0.60701,-0.809339 0.60701,-2.419923 z"
           style="stroke-width:0.41438133px"
           id="path4766"
           inkscape:connector-curvature="0" />
      </g>
      <path
         inkscape:connector-curvature="0"
         id="path4715"
         d="m 134.58321,-12.683043 a 1.5529275,1.5529275 0 0 1 -1.55293,1.552934 1.5529275,1.5529275 0 0 1 -1.55293,-1.552934 1.5529275,1.5529275 0 0 1 1.55293,-1.55292 1.5529275,1.5529275 0 0 1 1.55293,1.55292 z"
         style="opacity:1;fill:#000000;fill-opacity:1;stroke:none;stroke-width:0.28824744;stroke-linecap:round;stroke-linejoin:round;stroke-miterlimit:4;stroke-dasharray:none;stroke-dashoffset:0.25;stroke-opacity:1" />
      <g
         aria-label="ENCRYPTION"
         style="font-style:normal;font-variant:normal;font-weight:normal;font-stretch:normal;font-size:16.57525635px;line-height:10.35953522px;font-family:Heebo;-inkscape-font-specification:Heebo;letter-spacing:0px;word-spacing:0px;fill:#000000;fill-opacity:1;stroke:none;stroke-width:0.41438138px;stroke-linecap:butt;stroke-linejoin:miter;stroke-opacity:1"
         id="text4713">
        <path
           d="m 141.82956,-16.410317 v 2.128561 h 4.37852 v 2.347082 h -4.37852 v 2.4280165 h 5.18786 v 2.4361094 h -6.29666 -1.91004 V -18.854519 h 3.01884 5.22023 v 2.444202 z"
           style="stroke-width:0.41438138px"
           id="path4769"
           inkscape:connector-curvature="0" />
        <path
           d="m 155.02178,-7.0705481 -3.93339,-6.8550989 v 6.8550989 h -3.01883 V -18.854519 h 3.01883 l 3.9253,6.847005 v -6.847005 h 3.01074 v 11.7839709 z"
           style="stroke-width:0.41438138px"
           id="path4771"
           inkscape:connector-curvature="0" />
        <path
           d="m 169.34707,-11.133428 q -0.0405,1.2625681 -0.66365,2.2256811 -0.62319,0.9550197 -1.72389,1.4810898 -1.10071,0.5179768 -2.54133,0.5179768 -1.5863,0 -2.72747,-0.6960313 -1.13307,-0.6960313 -1.73198,-1.9990666 -0.59082,-1.3111288 -0.59082,-3.1078608 v -0.493696 q 0,-1.780545 0.6151,-3.091674 0.62319,-1.319222 1.74817,-2.023347 1.13307,-0.704124 2.62225,-0.704124 1.52156,0 2.61417,0.55035 1.09261,0.55035 1.69152,1.52965 0.607,0.971206 0.71221,2.241868 h -3.01074 q -0.008,-0.95502 -0.46941,-1.392062 -0.46132,-0.445137 -1.53775,-0.445137 -0.67175,0 -1.08451,0.315642 -0.41276,0.307549 -0.62319,1.035954 -0.20233,0.720311 -0.20233,1.966693 v 0.509883 q 0,1.294942 0.18614,2.00716 0.19424,0.7122183 0.6151,1.0116736 0.42086,0.2913619 1.17354,0.2913619 0.93074,0 1.42444,-0.4127627 0.49369,-0.4127628 0.50179,-1.3192218 z"
           style="stroke-width:0.41438138px"
           id="path4773"
           inkscape:connector-curvature="0" />
        <path
           d="m 180.24077,-7.2000422 v 0.1294941 h -3.23735 l -1.98288,-3.9819459 h -1.40016 v 3.9819459 h -3.01883 V -18.854519 h 4.75082 q 1.37587,0 2.38755,0.412762 1.01167,0.40467 1.56202,1.205915 0.55844,0.801245 0.55844,1.942413 0,1.359689 -0.51797,2.144747 -0.50989,0.776966 -1.50537,1.270662 z m -6.62039,-6.3047488 h 1.73199 q 0.7365,0 1.10879,-0.364202 0.38039,-0.372296 0.38039,-1.084514 0,-0.696031 -0.38848,-1.07642 -0.38848,-0.38039 -1.1007,-0.38039 h -1.73199 z"
           style="stroke-width:0.41438138px"
           id="path4775"
           inkscape:connector-curvature="0" />
        <path
           d="m 187.16871,-18.854519 h 3.24545 l -3.75533,7.59969 v 4.1842809 h -3.07549 v -4.1842809 l -3.76342,-7.59969 h 3.24545 l 2.05572,4.904592 z"
           style="stroke-width:0.41438138px"
           id="path4777"
           inkscape:connector-curvature="0" />
        <path
           d="m 195.94194,-18.854519 q 1.39207,0 2.44421,0.534163 1.05214,0.52607 1.61867,1.464903 0.56654,0.93074 0.56654,2.112374 0,1.133074 -0.56654,2.00716 -0.56653,0.874086 -1.61867,1.359689 -1.04405,0.485603 -2.44421,0.485603 h -1.73198 v 3.8200789 h -3.01883 V -18.854519 Z m 0,5.511596 q 0.79316,0 1.18164,-0.372296 0.38848,-0.380389 0.38848,-1.011673 0,-0.728405 -0.39657,-1.205915 -0.39658,-0.47751 -1.17355,-0.47751 h -1.73198 v 3.067394 z"
           style="stroke-width:0.41438138px"
           id="path4779"
           inkscape:connector-curvature="0" />
        <path
           d="m 211.45697,-16.410317 h -3.51253 v 9.3397689 h -3.02693 v -9.3397689 h -3.4235 v -2.444202 h 6.45043 3.51253 z"
           style="stroke-width:0.41438138px"
           id="path4781"
           inkscape:connector-curvature="0" />
        <path
           d="M 212.80046,-7.0705481 V -18.854519 h 3.00265 v 11.7839709 z"
           style="stroke-width:0.41438138px"
           id="path4783"
           inkscape:connector-curvature="0" />
        <path
           d="m 227.78133,-12.744012 q 0,1.772451 -0.66366,3.0997669 -0.66366,1.3192221 -1.84529,2.0314401 -1.18164,0.7041247 -2.6951,0.7041247 -1.53775,0 -2.72747,-0.7041247 -1.18164,-0.712218 -1.8453,-2.0314401 -0.65556,-1.3273159 -0.65556,-3.0997669 v -0.42895 q 0,-1.772452 0.65556,-3.091674 0.66366,-1.327315 1.8453,-2.039533 1.18163,-0.712218 2.71128,-0.712218 1.51346,0 2.6951,0.712218 1.18973,0.712218 1.85338,2.039533 0.67176,1.319222 0.67176,3.091674 z m -3.08358,-0.445137 q 0,-1.634864 -0.55845,-2.492763 -0.55035,-0.865992 -1.57821,-0.865992 -2.12856,0 -2.12856,3.358755 v 0.445137 q 0,1.634864 0.53416,2.50895 0.54226,0.8659921 1.61059,0.8659921 1.01977,0 1.57012,-0.8821791 0.55035,-0.882179 0.55035,-2.492763 z"
           style="stroke-width:0.41438138px"
           id="path4785"
           inkscape:connector-curvature="0" />
        <path
           d="m 236.08514,-7.0705481 -3.93339,-6.8550989 v 6.8550989 h -3.01883 V -18.854519 h 3.01883 l 3.9253,6.847005 v -6.847005 h 3.01074 v 11.7839709 z"
           style="stroke-width:0.41438138px"
           id="path4787"
           inkscape:connector-curvature="0" />
      </g>
    </g>
    <text
       xml:space="preserve"
       style="font-style:normal;font-variant:normal;font-weight:normal;font-stretch:normal;font-size:49.31838989px;line-height:30.82399559px;font-family:Heebo;-inkscape-font-specification:Heebo;letter-spacing:0px;word-spacing:0px;fill:#d20303;fill-opacity:1;stroke:none;stroke-width:1.23295975px;stroke-linecap:butt;stroke-linejoin:miter;stroke-opacity:1"
       x="96.010925"
       y="238.79645"
       id="text4589"><tspan
         sodipodi:role="line"
         id="tspan4587"
         x="96.010925"
         y="238.79645"
         style="fill:#d20303;fill-opacity:1;stroke-width:1.23295975px">CRYPTO CLUB</tspan></text>
    <g
       id="g4666"
       transform="matrix(0.37303814,0,0,0.37303814,2.3458296,202.71326)">
      <rect
         id="rect4650"
         height="245"
         width="245"
         y="0"
         x="0"
         style="fill:#ffffff;fill-opacity:1" />
      <g
         id="elements">
        <path
           id="path4652"
           d="m 7,7 h 7 v 7 H 7 Z m 7,0 h 7 v 7 h -7 z m 7,0 h 7 v 7 h -7 z m 7,0 h 7 v 7 h -7 z m 7,0 h 7 v 7 h -7 z m 7,0 h 7 v 7 h -7 z m 7,0 h 7 v 7 h -7 z m 21,0 h 7 v 7 h -7 z m 49,0 h 7 v 7 h -7 z m 21,0 h 7 v 7 h -7 z m 7,0 h 7 v 7 h -7 z m 7,0 h 7 v 7 h -7 z m 7,0 h 7 v 7 h -7 z m 7,0 h 7 v 7 h -7 z m 21,0 h 7 v 7 h -7 z m 7,0 h 7 v 7 h -7 z m 7,0 h 7 v 7 h -7 z m 7,0 h 7 v 7 h -7 z m 7,0 h 7 v 7 h -7 z m 7,0 h 7 v 7 h -7 z m 7,0 h 7 v 7 h -7 z M 7,14 h 7 v 7 H 7 Z m 42,0 h 7 v 7 h -7 z m 14,0 h 7 v 7 h -7 z m 7,0 h 7 v 7 h -7 z m 14,0 h 7 v 7 h -7 z m 7,0 h 7 v 7 h -7 z m 14,0 h 7 v 7 h -7 z m 7,0 h 7 v 7 h -7 z m 7,0 h 7 v 7 h -7 z m 28,0 h 7 v 7 h -7 z m 7,0 h 7 v 7 h -7 z m 7,0 h 7 v 7 h -7 z m 14,0 h 7 v 7 h -7 z m 14,0 h 7 v 7 h -7 z m 42,0 h 7 v 7 h -7 z M 7,21 h 7 v 7 H 7 Z m 14,0 h 7 v 7 h -7 z m 7,0 h 7 v 7 h -7 z m 7,0 h 7 v 7 h -7 z m 14,0 h 7 v 7 h -7 z m 21,0 h 7 v 7 h -7 z m 7,0 h 7 v 7 h -7 z m 7,0 h 7 v 7 h -7 z m 21,0 h 7 v 7 h -7 z m 14,0 h 7 v 7 h -7 z m 14,0 h 7 v 7 h -7 z m 21,0 h 7 v 7 h -7 z m 7,0 h 7 v 7 h -7 z m 28,0 h 7 v 7 h -7 z m 14,0 h 7 v 7 h -7 z m 7,0 h 7 v 7 h -7 z m 7,0 h 7 v 7 h -7 z m 14,0 h 7 v 7 h -7 z M 7,28 h 7 v 7 H 7 Z m 14,0 h 7 v 7 h -7 z m 7,0 h 7 v 7 h -7 z m 7,0 h 7 v 7 h -7 z m 14,0 h 7 v 7 h -7 z m 14,0 h 7 v 7 h -7 z m 7,0 h 7 v 7 h -7 z m 14,0 h 7 v 7 h -7 z m 14,0 h 7 v 7 h -7 z m 7,0 h 7 v 7 h -7 z m 7,0 h 7 v 7 h -7 z m 7,0 h 7 v 7 h -7 z m 7,0 h 7 v 7 h -7 z m 14,0 h 7 v 7 h -7 z m 21,0 h 7 v 7 h -7 z m 7,0 h 7 v 7 h -7 z m 7,0 h 7 v 7 h -7 z m 14,0 h 7 v 7 h -7 z m 14,0 h 7 v 7 h -7 z m 7,0 h 7 v 7 h -7 z m 7,0 h 7 v 7 h -7 z m 14,0 h 7 v 7 h -7 z M 7,35 h 7 v 7 H 7 Z m 14,0 h 7 v 7 h -7 z m 7,0 h 7 v 7 h -7 z m 7,0 h 7 v 7 h -7 z m 14,0 h 7 v 7 h -7 z m 28,0 h 7 v 7 h -7 z m 14,0 h 7 v 7 h -7 z m 7,0 h 7 v 7 h -7 z m 21,0 h 7 v 7 h -7 z m 14,0 h 7 v 7 h -7 z m 7,0 h 7 v 7 h -7 z m 7,0 h 7 v 7 h -7 z m 7,0 h 7 v 7 h -7 z m 14,0 h 7 v 7 h -7 z m 21,0 h 7 v 7 h -7 z m 14,0 h 7 v 7 h -7 z m 7,0 h 7 v 7 h -7 z m 7,0 h 7 v 7 h -7 z m 14,0 h 7 v 7 h -7 z M 7,42 h 7 v 7 H 7 Z m 42,0 h 7 v 7 h -7 z m 14,0 h 7 v 7 h -7 z m 14,0 h 7 v 7 h -7 z m 28,0 h 7 v 7 h -7 z m 7,0 h 7 v 7 h -7 z m 7,0 h 7 v 7 h -7 z m 28,0 h 7 v 7 h -7 z m 42,0 h 7 v 7 h -7 z m 42,0 h 7 v 7 h -7 z M 7,49 h 7 v 7 H 7 Z m 7,0 h 7 v 7 h -7 z m 7,0 h 7 v 7 h -7 z m 7,0 h 7 v 7 h -7 z m 7,0 h 7 v 7 h -7 z m 7,0 h 7 v 7 h -7 z m 7,0 h 7 v 7 h -7 z m 14,0 h 7 v 7 h -7 z m 14,0 h 7 v 7 h -7 z m 14,0 h 7 v 7 h -7 z m 14,0 h 7 v 7 h -7 z m 14,0 h 7 v 7 h -7 z m 14,0 h 7 v 7 h -7 z m 14,0 h 7 v 7 h -7 z m 14,0 h 7 v 7 h -7 z m 14,0 h 7 v 7 h -7 z m 14,0 h 7 v 7 h -7 z m 7,0 h 7 v 7 h -7 z m 7,0 h 7 v 7 h -7 z m 7,0 h 7 v 7 h -7 z m 7,0 h 7 v 7 h -7 z m 7,0 h 7 v 7 h -7 z m 7,0 h 7 v 7 h -7 z M 91,56 h 7 v 7 h -7 z m 28,0 h 7 v 7 h -7 z m 21,0 h 7 v 7 h -7 z m 14,0 h 7 v 7 h -7 z m 14,0 h 7 v 7 h -7 z m 7,0 h 7 v 7 h -7 z M 7,63 h 7 v 7 H 7 Z m 7,0 h 7 v 7 h -7 z m 7,0 h 7 v 7 h -7 z m 7,0 h 7 v 7 h -7 z m 7,0 h 7 v 7 h -7 z m 14,0 h 7 v 7 h -7 z m 7,0 h 7 v 7 h -7 z m 7,0 h 7 v 7 h -7 z m 7,0 h 7 v 7 h -7 z m 7,0 h 7 v 7 h -7 z m 14,0 h 7 v 7 h -7 z m 7,0 h 7 v 7 h -7 z m 7,0 h 7 v 7 h -7 z m 21,0 h 7 v 7 h -7 z m 7,0 h 7 v 7 h -7 z m 14,0 h 7 v 7 h -7 z m 7,0 h 7 v 7 h -7 z m 7,0 h 7 v 7 h -7 z m 14,0 h 7 v 7 h -7 z m 7,0 h 7 v 7 h -7 z m 14,0 h 7 v 7 h -7 z m 14,0 h 7 v 7 h -7 z m 14,0 h 7 v 7 h -7 z M 7,70 h 7 v 7 H 7 Z m 7,0 h 7 v 7 h -7 z m 14,0 h 7 v 7 h -7 z m 14,0 h 7 v 7 h -7 z m 14,0 h 7 v 7 h -7 z m 7,0 h 7 v 7 h -7 z m 7,0 h 7 v 7 h -7 z m 56,0 h 7 v 7 h -7 z m 7,0 h 7 v 7 h -7 z m 7,0 h 7 v 7 h -7 z m 7,0 h 7 v 7 h -7 z m 7,0 h 7 v 7 h -7 z m 7,0 h 7 v 7 h -7 z m 28,0 h 7 v 7 h -7 z m 28,0 h 7 v 7 h -7 z m 7,0 h 7 v 7 h -7 z m 7,0 h 7 v 7 h -7 z M 7,77 h 7 v 7 H 7 Z m 7,0 h 7 v 7 h -7 z m 7,0 h 7 v 7 h -7 z m 7,0 h 7 v 7 h -7 z m 21,0 h 7 v 7 h -7 z m 7,0 h 7 v 7 h -7 z m 14,0 h 7 v 7 h -7 z m 14,0 h 7 v 7 h -7 z m 7,0 h 7 v 7 h -7 z m 7,0 h 7 v 7 h -7 z m 14,0 h 7 v 7 h -7 z m 14,0 h 7 v 7 h -7 z m 28,0 h 7 v 7 h -7 z m 7,0 h 7 v 7 h -7 z m 35,0 h 7 v 7 h -7 z m 7,0 h 7 v 7 h -7 z m 7,0 h 7 v 7 h -7 z m 14,0 h 7 v 7 h -7 z M 7,84 h 7 v 7 H 7 Z m 7,0 h 7 v 7 h -7 z m 7,0 h 7 v 7 h -7 z m 7,0 h 7 v 7 h -7 z m 28,0 h 7 v 7 h -7 z m 14,0 h 7 v 7 h -7 z m 7,0 h 7 v 7 h -7 z m 7,0 h 7 v 7 h -7 z m 21,0 h 7 v 7 h -7 z m 35,0 h 7 v 7 h -7 z m 14,0 h 7 v 7 h -7 z m 7,0 h 7 v 7 h -7 z m 7,0 h 7 v 7 h -7 z m 14,0 h 7 v 7 h -7 z m 7,0 h 7 v 7 h -7 z m 14,0 h 7 v 7 h -7 z m 14,0 h 7 v 7 h -7 z M 7,91 h 7 v 7 H 7 Z m 14,0 h 7 v 7 h -7 z m 14,0 h 7 v 7 h -7 z m 14,0 h 7 v 7 h -7 z m 7,0 h 7 v 7 h -7 z m 14,0 h 7 v 7 h -7 z m 14,0 h 7 v 7 h -7 z m 14,0 h 7 v 7 h -7 z m 7,0 h 7 v 7 h -7 z m 7,0 h 7 v 7 h -7 z m 7,0 h 7 v 7 h -7 z m 7,0 h 7 v 7 h -7 z m 28,0 h 7 v 7 h -7 z m 7,0 h 7 v 7 h -7 z m 7,0 h 7 v 7 h -7 z m 7,0 h 7 v 7 h -7 z m 7,0 h 7 v 7 h -7 z m 14,0 h 7 v 7 h -7 z m 7,0 h 7 v 7 h -7 z m 7,0 h 7 v 7 h -7 z M 7,98 h 7 v 7 H 7 Z m 7,0 h 7 v 7 h -7 z m 7,0 h 7 v 7 h -7 z m 14,0 h 7 v 7 h -7 z m 21,0 h 7 v 7 h -7 z m 7,0 h 7 v 7 h -7 z m 14,0 h 7 v 7 h -7 z m 14,0 h 7 v 7 h -7 z m 7,0 h 7 v 7 h -7 z m 21,0 h 7 v 7 h -7 z m 14,0 h 7 v 7 h -7 z m 7,0 h 7 v 7 h -7 z m 7,0 h 7 v 7 h -7 z m 21,0 h 7 v 7 h -7 z m 21,0 h 7 v 7 h -7 z m 7,0 h 7 v 7 h -7 z m 28,0 h 7 v 7 h -7 z m 7,0 h 7 v 7 h -7 z M 7,105 h 7 v 7 H 7 Z m 21,0 h 7 v 7 h -7 z m 7,0 h 7 v 7 h -7 z m 7,0 h 7 v 7 h -7 z m 7,0 h 7 v 7 h -7 z m 14,0 h 7 v 7 h -7 z m 7,0 h 7 v 7 h -7 z m 28,0 h 7 v 7 h -7 z m 7,0 h 7 v 7 h -7 z m 7,0 h 7 v 7 h -7 z m 7,0 h 7 v 7 h -7 z m 7,0 h 7 v 7 h -7 z m 7,0 h 7 v 7 h -7 z m 14,0 h 7 v 7 h -7 z m 7,0 h 7 v 7 h -7 z m 7,0 h 7 v 7 h -7 z m 14,0 h 7 v 7 h -7 z m 7,0 h 7 v 7 h -7 z m 7,0 h 7 v 7 h -7 z m 7,0 h 7 v 7 h -7 z m 7,0 h 7 v 7 h -7 z m 21,0 h 7 v 7 h -7 z M 7,112 h 7 v 7 H 7 Z m 28,0 h 7 v 7 h -7 z m 28,0 h 7 v 7 h -7 z m 28,0 h 7 v 7 h -7 z m 14,0 h 7 v 7 h -7 z m 7,0 h 7 v 7 h -7 z m 7,0 h 7 v 7 h -7 z m 14,0 h 7 v 7 h -7 z m 14,0 h 7 v 7 h -7 z m 7,0 h 7 v 7 h -7 z m 7,0 h 7 v 7 h -7 z m 21,0 h 7 v 7 h -7 z m 7,0 h 7 v 7 h -7 z m 7,0 h 7 v 7 h -7 z m 21,0 h 7 v 7 h -7 z M 7,119 h 7 v 7 H 7 Z m 7,0 h 7 v 7 h -7 z m 28,0 h 7 v 7 h -7 z m 7,0 h 7 v 7 h -7 z m 7,0 h 7 v 7 h -7 z m 35,0 h 7 v 7 h -7 z m 7,0 h 7 v 7 h -7 z m 7,0 h 7 v 7 h -7 z m 7,0 h 7 v 7 h -7 z m 14,0 h 7 v 7 h -7 z m 28,0 h 7 v 7 h -7 z m 7,0 h 7 v 7 h -7 z m 21,0 h 7 v 7 h -7 z m 14,0 h 7 v 7 h -7 z m 7,0 h 7 v 7 h -7 z m 21,0 h 7 v 7 h -7 z M 7,126 h 7 v 7 H 7 Z m 49,0 h 7 v 7 h -7 z m 14,0 h 7 v 7 h -7 z m 7,0 h 7 v 7 h -7 z m 21,0 h 7 v 7 h -7 z m 21,0 h 7 v 7 h -7 z m 7,0 h 7 v 7 h -7 z m 7,0 h 7 v 7 h -7 z m 7,0 h 7 v 7 h -7 z m 7,0 h 7 v 7 h -7 z m 7,0 h 7 v 7 h -7 z m 14,0 h 7 v 7 h -7 z m 21,0 h 7 v 7 h -7 z m 21,0 h 7 v 7 h -7 z m 14,0 h 7 v 7 h -7 z m 7,0 h 7 v 7 h -7 z M 7,133 h 7 v 7 H 7 Z m 7,0 h 7 v 7 h -7 z m 7,0 h 7 v 7 h -7 z m 28,0 h 7 v 7 h -7 z m 7,0 h 7 v 7 h -7 z m 14,0 h 7 v 7 h -7 z m 7,0 h 7 v 7 h -7 z m 7,0 h 7 v 7 h -7 z m 7,0 h 7 v 7 h -7 z m 14,0 h 7 v 7 h -7 z m 7,0 h 7 v 7 h -7 z m 35,0 h 7 v 7 h -7 z m 7,0 h 7 v 7 h -7 z m 7,0 h 7 v 7 h -7 z m 14,0 h 7 v 7 h -7 z m 7,0 h 7 v 7 h -7 z m 7,0 h 7 v 7 h -7 z m 21,0 h 7 v 7 h -7 z m 14,0 h 7 v 7 h -7 z m -203,7 h 7 v 7 h -7 z m 42,0 h 7 v 7 h -7 z m 7,0 h 7 v 7 h -7 z m 7,0 h 7 v 7 h -7 z m 7,0 h 7 v 7 h -7 z m 21,0 h 7 v 7 h -7 z m 7,0 h 7 v 7 h -7 z m 7,0 h 7 v 7 h -7 z m 14,0 h 7 v 7 h -7 z m 7,0 h 7 v 7 h -7 z m 7,0 h 7 v 7 h -7 z m 7,0 h 7 v 7 h -7 z m 21,0 h 7 v 7 h -7 z m 7,0 h 7 v 7 h -7 z m 35,0 h 7 v 7 h -7 z M 7,147 h 7 v 7 H 7 Z m 14,0 h 7 v 7 h -7 z m 21,0 h 7 v 7 h -7 z m 7,0 h 7 v 7 h -7 z m 21,0 h 7 v 7 h -7 z m 7,0 h 7 v 7 h -7 z m 7,0 h 7 v 7 h -7 z m 14,0 h 7 v 7 h -7 z m 7,0 h 7 v 7 h -7 z m 7,0 h 7 v 7 h -7 z m 7,0 h 7 v 7 h -7 z m 7,0 h 7 v 7 h -7 z m 21,0 h 7 v 7 h -7 z m 56,0 h 7 v 7 h -7 z m 21,0 h 7 v 7 h -7 z M 7,154 h 7 v 7 H 7 Z m 14,0 h 7 v 7 h -7 z m 7,0 h 7 v 7 h -7 z m 35,0 h 7 v 7 h -7 z m 7,0 h 7 v 7 h -7 z m 7,0 h 7 v 7 h -7 z m 14,0 h 7 v 7 h -7 z m 28,0 h 7 v 7 h -7 z m 7,0 h 7 v 7 h -7 z m 7,0 h 7 v 7 h -7 z m 7,0 h 7 v 7 h -7 z m 7,0 h 7 v 7 h -7 z m 21,0 h 7 v 7 h -7 z m 21,0 h 7 v 7 h -7 z m 21,0 h 7 v 7 h -7 z m 14,0 h 7 v 7 h -7 z m 7,0 h 7 v 7 h -7 z M 7,161 h 7 v 7 H 7 Z m 14,0 h 7 v 7 h -7 z m 7,0 h 7 v 7 h -7 z m 7,0 h 7 v 7 h -7 z m 7,0 h 7 v 7 h -7 z m 7,0 h 7 v 7 h -7 z m 7,0 h 7 v 7 h -7 z m 7,0 h 7 v 7 h -7 z m 14,0 h 7 v 7 h -7 z m 28,0 h 7 v 7 h -7 z m 7,0 h 7 v 7 h -7 z m 7,0 h 7 v 7 h -7 z m 7,0 h 7 v 7 h -7 z m 21,0 h 7 v 7 h -7 z m 14,0 h 7 v 7 h -7 z m 21,0 h 7 v 7 h -7 z m 7,0 h 7 v 7 h -7 z m 7,0 h 7 v 7 h -7 z m 14,0 h 7 v 7 h -7 z m 14,0 h 7 v 7 h -7 z M 7,168 h 7 v 7 H 7 Z m 14,0 h 7 v 7 h -7 z m 14,0 h 7 v 7 h -7 z m 28,0 h 7 v 7 h -7 z m 7,0 h 7 v 7 h -7 z m 21,0 h 7 v 7 h -7 z m 14,0 h 7 v 7 h -7 z m 42,0 h 7 v 7 h -7 z m 7,0 h 7 v 7 h -7 z m 7,0 h 7 v 7 h -7 z m 14,0 h 7 v 7 h -7 z m 7,0 h 7 v 7 h -7 z m 7,0 h 7 v 7 h -7 z m 7,0 h 7 v 7 h -7 z m 7,0 h 7 v 7 h -7 z m 7,0 h 7 v 7 h -7 z m 7,0 h 7 v 7 h -7 z M 7,175 h 7 v 7 H 7 Z m 14,0 h 7 v 7 h -7 z m 7,0 h 7 v 7 h -7 z m 14,0 h 7 v 7 h -7 z m 7,0 h 7 v 7 h -7 z m 42,0 h 7 v 7 h -7 z m 7,0 h 7 v 7 h -7 z m 14,0 h 7 v 7 h -7 z m 7,0 h 7 v 7 h -7 z m 7,0 h 7 v 7 h -7 z m 14,0 h 7 v 7 h -7 z m 21,0 h 7 v 7 h -7 z m 7,0 h 7 v 7 h -7 z m 7,0 h 7 v 7 h -7 z m 7,0 h 7 v 7 h -7 z m 7,0 h 7 v 7 h -7 z m 7,0 h 7 v 7 h -7 z m 7,0 h 7 v 7 h -7 z m 28,0 h 7 v 7 h -7 z m -168,7 h 7 v 7 h -7 z m 35,0 h 7 v 7 h -7 z m 21,0 h 7 v 7 h -7 z m 14,0 h 7 v 7 h -7 z m 7,0 h 7 v 7 h -7 z m 14,0 h 7 v 7 h -7 z m 14,0 h 7 v 7 h -7 z m 7,0 h 7 v 7 h -7 z m 28,0 h 7 v 7 h -7 z m 7,0 h 7 v 7 h -7 z m 7,0 h 7 v 7 h -7 z m 14,0 h 7 v 7 h -7 z M 7,189 h 7 v 7 H 7 Z m 7,0 h 7 v 7 h -7 z m 7,0 h 7 v 7 h -7 z m 7,0 h 7 v 7 h -7 z m 7,0 h 7 v 7 h -7 z m 7,0 h 7 v 7 h -7 z m 7,0 h 7 v 7 h -7 z m 14,0 h 7 v 7 h -7 z m 7,0 h 7 v 7 h -7 z m 7,0 h 7 v 7 h -7 z m 7,0 h 7 v 7 h -7 z m 7,0 h 7 v 7 h -7 z m 7,0 h 7 v 7 h -7 z m 7,0 h 7 v 7 h -7 z m 7,0 h 7 v 7 h -7 z m 7,0 h 7 v 7 h -7 z m 7,0 h 7 v 7 h -7 z m 7,0 h 7 v 7 h -7 z m 35,0 h 7 v 7 h -7 z m 7,0 h 7 v 7 h -7 z m 14,0 h 7 v 7 h -7 z m 14,0 h 7 v 7 h -7 z m 7,0 h 7 v 7 h -7 z m 14,0 h 7 v 7 h -7 z M 7,196 h 7 v 7 H 7 Z m 42,0 h 7 v 7 h -7 z m 28,0 h 7 v 7 h -7 z m 7,0 h 7 v 7 h -7 z m 28,0 h 7 v 7 h -7 z m 21,0 h 7 v 7 h -7 z m 7,0 h 7 v 7 h -7 z m 14,0 h 7 v 7 h -7 z m 7,0 h 7 v 7 h -7 z m 7,0 h 7 v 7 h -7 z m 7,0 h 7 v 7 h -7 z m 28,0 h 7 v 7 h -7 z m 7,0 h 7 v 7 h -7 z m 7,0 h 7 v 7 h -7 z M 7,203 h 7 v 7 H 7 Z m 14,0 h 7 v 7 h -7 z m 7,0 h 7 v 7 h -7 z m 7,0 h 7 v 7 h -7 z m 14,0 h 7 v 7 h -7 z m 14,0 h 7 v 7 h -7 z m 7,0 h 7 v 7 h -7 z m 14,0 h 7 v 7 h -7 z m 7,0 h 7 v 7 h -7 z m 7,0 h 7 v 7 h -7 z m 7,0 h 7 v 7 h -7 z m 7,0 h 7 v 7 h -7 z m 14,0 h 7 v 7 h -7 z m 7,0 h 7 v 7 h -7 z m 28,0 h 7 v 7 h -7 z m 14,0 h 7 v 7 h -7 z m 7,0 h 7 v 7 h -7 z m 7,0 h 7 v 7 h -7 z m 7,0 h 7 v 7 h -7 z m 7,0 h 7 v 7 h -7 z m 21,0 h 7 v 7 h -7 z M 7,210 h 7 v 7 H 7 Z m 14,0 h 7 v 7 h -7 z m 7,0 h 7 v 7 h -7 z m 7,0 h 7 v 7 h -7 z m 14,0 h 7 v 7 h -7 z m 14,0 h 7 v 7 h -7 z m 7,0 h 7 v 7 h -7 z m 21,0 h 7 v 7 h -7 z m 7,0 h 7 v 7 h -7 z m 21,0 h 7 v 7 h -7 z m 7,0 h 7 v 7 h -7 z m 7,0 h 7 v 7 h -7 z m 7,0 h 7 v 7 h -7 z m 7,0 h 7 v 7 h -7 z m 35,0 h 7 v 7 h -7 z m 14,0 h 7 v 7 h -7 z m 7,0 h 7 v 7 h -7 z M 7,217 h 7 v 7 H 7 Z m 14,0 h 7 v 7 h -7 z m 7,0 h 7 v 7 h -7 z m 7,0 h 7 v 7 h -7 z m 14,0 h 7 v 7 h -7 z m 14,0 h 7 v 7 h -7 z m 14,0 h 7 v 7 h -7 z m 14,0 h 7 v 7 h -7 z m 14,0 h 7 v 7 h -7 z m 7,0 h 7 v 7 h -7 z m 7,0 h 7 v 7 h -7 z m 7,0 h 7 v 7 h -7 z m 21,0 h 7 v 7 h -7 z m 7,0 h 7 v 7 h -7 z m 7,0 h 7 v 7 h -7 z m 14,0 h 7 v 7 h -7 z m 35,0 h 7 v 7 h -7 z m 7,0 h 7 v 7 h -7 z m 7,0 h 7 v 7 h -7 z M 7,224 h 7 v 7 H 7 Z m 42,0 h 7 v 7 h -7 z m 14,0 h 7 v 7 h -7 z m 7,0 h 7 v 7 h -7 z m 35,0 h 7 v 7 h -7 z m 7,0 h 7 v 7 h -7 z m 7,0 h 7 v 7 h -7 z m 28,0 h 7 v 7 h -7 z m 7,0 h 7 v 7 h -7 z m 14,0 h 7 v 7 h -7 z m 28,0 h 7 v 7 h -7 z m 14,0 h 7 v 7 h -7 z m 7,0 h 7 v 7 h -7 z M 7,231 h 7 v 7 H 7 Z m 7,0 h 7 v 7 h -7 z m 7,0 h 7 v 7 h -7 z m 7,0 h 7 v 7 h -7 z m 7,0 h 7 v 7 h -7 z m 7,0 h 7 v 7 h -7 z m 7,0 h 7 v 7 h -7 z m 14,0 h 7 v 7 h -7 z m 14,0 h 7 v 7 h -7 z m 14,0 h 7 v 7 h -7 z m 7,0 h 7 v 7 h -7 z m 7,0 h 7 v 7 h -7 z m 21,0 h 7 v 7 h -7 z m 21,0 h 7 v 7 h -7 z m 14,0 h 7 v 7 h -7 z m 7,0 h 7 v 7 h -7 z m 7,0 h 7 v 7 h -7 z m 7,0 h 7 v 7 h -7 z m 7,0 h 7 v 7 h -7 z m 21,0 h 7 v 7 h -7 z m 14,0 h 7 v 7 h -7 z"
           style="fill:#000000"
           inkscape:connector-curvature="0" />
      </g>
    </g>
  </g>
</svg>
