<?xml version="1.0" encoding="UTF-8" standalone="no"?>
<!-- Created with Inkscape (http://www.inkscape.org/) -->

<svg
   xmlns:dc="http://purl.org/dc/elements/1.1/"
   xmlns:cc="http://creativecommons.org/ns#"
   xmlns:rdf="http://www.w3.org/1999/02/22-rdf-syntax-ns#"
   xmlns:svg="http://www.w3.org/2000/svg"
   xmlns="http://www.w3.org/2000/svg"
   xmlns:sodipodi="http://sodipodi.sourceforge.net/DTD/sodipodi-0.dtd"
   xmlns:inkscape="http://www.inkscape.org/namespaces/inkscape"
   width="1000"
   height="505.21896"
   viewBox="0 0 264.58333 133.67252"
   version="1.1"
   id="svg4843"
   inkscape:version="0.92.2 5c3e80d, 2017-08-06"
   sodipodi:docname="logo.svg"
   inkscape:export-filename="/home/jak/code/cryptoclub/brand/logo/logo-preview.png"
   inkscape:export-xdpi="241.94142"
   inkscape:export-ydpi="241.94142">
  <defs
     id="defs4837" />
  <sodipodi:namedview
     id="base"
     pagecolor="#ffffff"
     bordercolor="#666666"
     borderopacity="1.0"
     inkscape:pageopacity="0.0"
     inkscape:pageshadow="2"
     inkscape:zoom="0.35"
     inkscape:cx="-157.99999"
     inkscape:cy="-23.659958"
     inkscape:document-units="mm"
     inkscape:current-layer="layer1"
     showgrid="false"
     units="px"
     fit-margin-top="0"
     fit-margin-left="0"
     fit-margin-right="0"
     fit-margin-bottom="0"
     inkscape:window-width="2560"
     inkscape:window-height="1376"
     inkscape:window-x="0"
     inkscape:window-y="27"
     inkscape:window-maximized="1" />
  <metadata
     id="metadata4840">
    <rdf:RDF>
      <cc:Work
         rdf:about="">
        <dc:format>image/svg+xml</dc:format>
        <dc:type
           rdf:resource="http://purl.org/dc/dcmitype/StillImage" />
        <dc:title></dc:title>
      </cc:Work>
    </rdf:RDF>
  </metadata>
  <g
     inkscape:label="Layer 1"
     inkscape:groupmode="layer"
     id="layer1"
     transform="translate(6.5767881,-8.9007702)">
    <g
       style="font-style:normal;font-variant:normal;font-weight:normal;font-stretch:normal;font-size:10.58333302px;line-height:1.25;font-family:'Cutive Mono';-inkscape-font-specification:'Cutive Mono';letter-spacing:0px;word-spacing:0px;fill:#000000;fill-opacity:1;stroke:none;stroke-width:0.26458332"
       id="g4622"
       transform="matrix(7.3054232,0,0,7.3054232,-370.34504,-947.09651)">
      <path
         sodipodi:nodetypes="cccc"
         inkscape:connector-curvature="0"
         id="rect862"
         d="m 85.832367,140.01503 v 8.9647 H 49.973569 v -8.9647"
         style="opacity:0.98999999;fill:none;fill-opacity:1;stroke:#000000;stroke-width:0.35858798;stroke-linecap:butt;stroke-linejoin:miter;stroke-miterlimit:4;stroke-dasharray:none;stroke-opacity:1;paint-order:normal" />
      <path
         sodipodi:nodetypes="cc"
         inkscape:connector-curvature="0"
         id="path865"
         d="m 58.938268,140.01503 v 8.9647"
         style="fill:none;stroke:#000000;stroke-width:0.35858798;stroke-linecap:butt;stroke-linejoin:miter;stroke-miterlimit:4;stroke-dasharray:none;stroke-opacity:1" />
      <path
         d="m 57.052684,144.53835 q 0,-0.78839 -0.298159,-1.48575 -0.293106,-0.70246 -0.87932,-1.13707 -0.586212,-0.43461 -1.409944,-0.43461 -0.823729,0 -1.409945,0.43461 -0.586211,0.43461 -0.88437,1.13707 -0.29311,0.69736 -0.29311,1.48575 0,0.78833 0.29311,1.48069 0.298159,0.69232 0.88437,1.12188 0.586216,0.4245 1.409945,0.4245 0.823732,0 1.409944,-0.4245 0.586214,-0.42956 0.87932,-1.12188 0.298159,-0.69236 0.298159,-1.48069 z m -0.485141,0 q 0,0.67212 -0.237508,1.26844 -0.237509,0.59124 -0.712551,0.96016 -0.475037,0.36386 -1.152214,0.36386 -0.677178,0 -1.152212,-0.36386 -0.475034,-0.36892 -0.712551,-0.96016 -0.23751,-0.59632 -0.23751,-1.26844 0,-0.68226 0.24256,-1.27858 0.24256,-0.60138 0.717605,-0.97028 0.475035,-0.37396 1.142104,-0.37396 0.66707,0 1.142107,0.37396 0.475034,0.3689 0.717606,0.97028 0.242559,0.59632 0.242559,1.27858 z"
         style="font-style:normal;font-variant:normal;font-weight:normal;font-stretch:normal;font-size:medium;line-height:1.25;font-family:'Cutive Mono';-inkscape-font-specification:'Cutive Mono';letter-spacing:0px;word-spacing:0px;fill:#000000;fill-opacity:1;stroke:none;stroke-width:0.06845894"
         id="path4568"
         inkscape:connector-curvature="0" />
      <path
         d="m 74.987306,145.74614 q 0,-0.086 -0.09098,-0.15154 -0.09098,-0.0707 -0.197107,-0.0707 -0.151618,0 -0.202158,0.14143 -0.20721,0.68732 -0.702467,1.07646 -0.495265,0.38914 -1.212895,0.38914 -0.601394,0 -1.111821,-0.3184 -0.510424,-0.32343 -0.818701,-0.92989 -0.303223,-0.6115 -0.303223,-1.43525 0,-0.73278 0.272903,-1.30893 0.272901,-0.5761 0.778275,-0.89955 0.50537,-0.32344 1.187623,-0.32344 0.449783,0 0.828813,0.17693 0.379029,0.17174 0.631713,0.48516 0.25775,0.31335 0.333548,0.72268 0.02021,0.11112 0.08592,0.17694 0.0657,0.0606 0.15667,0.0606 0.09603,0 0.161721,-0.0606 0.07074,-0.0606 0.07074,-0.17694 v -1.48074 q 0,-0.12125 -0.07579,-0.18703 -0.07074,-0.0707 -0.171823,-0.0707 -0.101087,0 -0.176875,0.0707 -0.07074,0.0658 -0.07074,0.18183 v 0.5357 q -0.136436,-0.24764 -0.409351,-0.44472 -0.26785,-0.19713 -0.626662,-0.30829 -0.358814,-0.11632 -0.753002,-0.11632 -0.773223,0 -1.389777,0.36893 -0.616555,0.3689 -0.970315,1.03603 -0.348706,0.66708 -0.348706,1.5262 0,0.94503 0.348706,1.6627 0.35376,0.71254 0.970315,1.10171 0.616554,0.38913 1.394827,0.38913 0.692362,0 1.197735,-0.25775 0.510427,-0.25774 0.808596,-0.66204 0.298169,-0.40936 0.399243,-0.86419 0.0052,-0.012 0.0052,-0.0352 z"
         style="font-style:normal;font-variant:normal;font-weight:normal;font-stretch:normal;font-size:medium;line-height:1.25;font-family:'Cutive Mono';-inkscape-font-specification:'Cutive Mono';letter-spacing:0px;word-spacing:0px;fill:#000000;fill-opacity:1;stroke:none;stroke-width:0.06846114"
         id="path4572"
         inkscape:connector-curvature="0" />
      <path
         style="fill:none;stroke:#000000;stroke-width:0.35858798;stroke-linecap:butt;stroke-linejoin:miter;stroke-miterlimit:4;stroke-dasharray:none;stroke-opacity:1"
         d="m 67.902968,140.01507 v 8.96466"
         id="path4581"
         inkscape:connector-curvature="0"
         sodipodi:nodetypes="cc" />
      <path
         sodipodi:nodetypes="cc"
         inkscape:connector-curvature="0"
         id="path4583"
         d="m 76.867667,140.01503 v 8.9647"
         style="fill:none;stroke:#000000;stroke-width:0.35858798;stroke-linecap:butt;stroke-linejoin:miter;stroke-miterlimit:4;stroke-dasharray:none;stroke-opacity:1" />
      <path
         inkscape:connector-curvature="0"
         id="path4590"
         style="font-style:normal;font-variant:normal;font-weight:normal;font-stretch:normal;font-size:medium;line-height:1.25;font-family:'Cutive Mono';-inkscape-font-specification:'Cutive Mono';letter-spacing:0px;word-spacing:0px;fill:#000000;fill-opacity:1;stroke:none;stroke-width:0.06846179"
         d="m 83.952137,145.74612 q 0,-0.086 -0.09098,-0.15154 -0.09098,-0.0707 -0.197109,-0.0707 -0.151619,0 -0.20216,0.14143 -0.207212,0.68733 -0.702473,1.07647 -0.49527,0.38915 -1.212907,0.38915 -0.601399,0 -1.111831,-0.31841 -0.510429,-0.32343 -0.818709,-0.9299 -0.303226,-0.6115 -0.303226,-1.43526 0,-0.73279 0.272906,-1.30894 0.272903,-0.57611 0.778282,-0.89956 0.505375,-0.32344 1.187634,-0.32344 0.449788,0 0.828821,0.17693 0.379033,0.17174 0.631719,0.48516 0.257753,0.31336 0.333551,0.72269 0.02021,0.11112 0.08592,0.17694 0.0657,0.0606 0.156672,0.0606 0.09603,0 0.161722,-0.0606 0.07074,-0.0606 0.07074,-0.17694 v -1.48075 q 0,-0.12126 -0.07579,-0.18704 -0.07074,-0.0707 -0.171825,-0.0707 -0.101088,0 -0.176876,0.0707 -0.07074,0.0658 -0.07074,0.18184 v 0.5357 q -0.136437,-0.24764 -0.409355,-0.44472 -0.267852,-0.19714 -0.626668,-0.3083 -0.358817,-0.11632 -0.753009,-0.11632 -0.77323,0 -1.38979,0.36894 -0.616561,0.3689 -0.970324,1.03604 -0.348709,0.66708 -0.348709,1.52621 0,0.94504 0.348709,1.66272 0.353763,0.71254 0.970324,1.10172 0.61656,0.38913 1.39484,0.38913 0.692369,0 1.197747,-0.25775 0.510431,-0.25774 0.808603,-0.66205 0.298172,-0.40936 0.399247,-0.8642 0.0052,-0.012 0.0052,-0.0352 z" />
      <path
         d="m 65.391817,147.56534 q 0.121283,0 0.186978,-0.0606 0.07074,-0.0658 0.07074,-0.15153 0,-0.0808 -0.0657,-0.14143 -0.0657,-0.0606 -0.181925,-0.0606 h -0.358808 l -1.455475,-1.62226 1.248271,-1.46052 h 0.495265 q 0.20721,0 0.20721,-0.21215 0,-0.20204 -0.197108,-0.20204 h -1.349344 q -0.212261,0 -0.212261,0.20204 0,0.21215 0.232465,0.21215 h 0.227422 l -0.950102,1.12697 -1.010743,-1.12697 h 0.202159 q 0.202157,0 0.202157,-0.21215 0,-0.20204 -0.192055,-0.20204 H 61.29323 q -0.21226,0 -0.21226,0.20204 0,0.21215 0.232466,0.21215 h 0.444727 l 1.263434,1.44537 -1.379669,1.63741 h -0.424513 q -0.21226,0 -0.21226,0.20204 0,0.21215 0.232465,0.21215 h 1.248268 q 0.202158,0 0.202158,-0.21215 0,-0.20204 -0.192056,-0.20204 h -0.298168 l 1.116873,-1.30387 1.137086,1.30387 h -0.404297 q -0.121283,0 -0.192055,0.0606 -0.0657,0.0606 -0.0657,0.14143 0,0.086 0.07074,0.15153 0.07579,0.0606 0.212261,0.0606 z"
         style="font-style:normal;font-variant:normal;font-weight:normal;font-stretch:normal;font-size:medium;line-height:1.25;font-family:'Cutive Mono';-inkscape-font-specification:'Cutive Mono';letter-spacing:0px;word-spacing:0px;fill:#000000;fill-opacity:1;stroke:none;stroke-width:0.06846114"
         id="path4570"
         inkscape:connector-curvature="0" />
    </g>
    <g
       style="font-style:normal;font-variant:normal;font-weight:normal;font-stretch:normal;font-size:10.58333302px;line-height:1.25;font-family:'Cutive Mono';-inkscape-font-specification:'Cutive Mono';letter-spacing:0px;word-spacing:0px;fill:#000000;fill-opacity:1;stroke:none;stroke-width:0.26458332"
       transform="matrix(7.3054232,0,0,7.3054232,-370.34504,-1019.1365)"
       id="g4640">
      <path
         style="opacity:0.98999999;fill:#000000;fill-opacity:1;stroke:#000000;stroke-width:0.35858798;stroke-linecap:butt;stroke-linejoin:miter;stroke-miterlimit:4;stroke-dasharray:none;stroke-opacity:1;paint-order:normal"
         d="m 49.973569,149.87618 v -8.96473 l 35.858798,3e-5 v 8.9647"
         id="path4624"
         inkscape:connector-curvature="0"
         sodipodi:nodetypes="cccc" />
      <path
         style="fill:none;stroke:#ffffff;stroke-width:0.35858798;stroke-linecap:butt;stroke-linejoin:miter;stroke-miterlimit:4;stroke-dasharray:none;stroke-opacity:1"
         d="m 58.938268,140.72248 v 9.1537"
         id="path4626"
         inkscape:connector-curvature="0"
         sodipodi:nodetypes="cc" />
      <path
         sodipodi:nodetypes="cc"
         inkscape:connector-curvature="0"
         id="path4632"
         d="m 67.902968,140.72248 v 9.1537"
         style="fill:none;stroke:#ffffff;stroke-width:0.35858798;stroke-linecap:butt;stroke-linejoin:miter;stroke-miterlimit:4;stroke-dasharray:none;stroke-opacity:1" />
      <path
         style="fill:none;stroke:#ffffff;stroke-width:0.35858798;stroke-linecap:butt;stroke-linejoin:miter;stroke-miterlimit:4;stroke-dasharray:none;stroke-opacity:1"
         d="m 76.867667,140.72248 v 9.1537"
         id="path4634"
         inkscape:connector-curvature="0"
         sodipodi:nodetypes="cc" />
    </g>
    <text
       xml:space="preserve"
       style="font-style:normal;font-variant:normal;font-weight:normal;font-stretch:normal;font-size:39.21140671px;line-height:1.25;font-family:'Cutive Mono';-inkscape-font-specification:'Cutive Mono';letter-spacing:0px;word-spacing:0px;fill:#ffffff;fill-opacity:1;stroke:none;stroke-width:0.25936711"
       x="208.4015"
       y="53.065903"
       id="text4644"
       transform="scale(0.96656926,1.034587)"><tspan
         sodipodi:role="line"
         id="tspan4642"
         x="208.4015"
         y="53.065903"
         style="font-style:normal;font-variant:normal;font-weight:normal;font-stretch:normal;font-family:'DejaVu Sans Mono';-inkscape-font-specification:'DejaVu Sans Mono';fill:#ffffff;fill-opacity:1;stroke-width:0.25936711">{}</tspan></text>
    <path
       style="font-style:normal;font-variant:normal;font-weight:normal;font-stretch:normal;font-size:10.58333302px;line-height:1.25;font-family:'Cutive Mono';-inkscape-font-specification:'Cutive Mono';letter-spacing:0px;word-spacing:0px;fill:#ffffff;fill-opacity:1;stroke:none;stroke-width:0.3858549"
       d="m 27.546088,23.713069 c -7.875997,0 -15.751078,4.499988 -15.751078,13.50112 v 5.69845 H 8.6445367 v 18.6048 H 46.448915 v -18.6048 h -3.150468 v -5.69845 c 0,-9.001132 -7.876362,-13.50112 -15.752359,-13.50112 z m 0.24815,2.990703 c 7.222354,0 12.267167,5.241002 12.283234,10.510417 v 5.69845 H 14.838347 v -5.69845 c 0.0169,-5.50348 5.733541,-10.510417 12.955891,-10.510417 z M 11.655895,45.949589 H 43.32448 V 58.551164 H 11.655895 Z"
       id="path4702"
       inkscape:connector-curvature="0"
       sodipodi:nodetypes="ssccccccsszcccczccccc" />
    <path
       style="font-style:normal;font-variant:normal;font-weight:normal;font-stretch:normal;font-size:10.58333302px;line-height:1.25;font-family:'Cutive Mono';-inkscape-font-specification:'Cutive Mono';letter-spacing:0px;word-spacing:0px;fill:#ffffff;fill-opacity:1;stroke:none;stroke-width:0.34511936"
       d="m 92.747937,23.712737 c -13.501662,0 -18.902837,5.040155 -18.902837,17.641802 v 10.082075 l 5.400447,2.51985 v 7.56095 h 27.003483 v -7.56095 l 5.40045,-2.51985 V 41.354539 c 0,-12.601647 -5.39989,-17.641802 -18.901543,-17.641802 z m -0.08315,2.617095 c 11.455823,0 16.037603,4.277542 16.037603,14.969707 v 8.148 l -5.4887,2.486625 v 6.6451 H 82.137635 v -6.587525 l -5.511723,-2.485375 v -8.2644 c 0,-10.692155 4.583063,-14.912132 16.038875,-14.912132 z"
       id="path4770"
       inkscape:connector-curvature="0" />
    <circle
       style="font-style:normal;font-variant:normal;font-weight:normal;font-stretch:normal;font-size:10.58333302px;line-height:1.25;font-family:'Cutive Mono';-inkscape-font-specification:'Cutive Mono';letter-spacing:0px;word-spacing:0px;opacity:0.98999999;fill:#ffffff;fill-opacity:1;stroke:#ffffff;stroke-width:2.07686615;stroke-linecap:butt;stroke-linejoin:miter;stroke-miterlimit:4;stroke-dasharray:none;stroke-opacity:1;paint-order:normal"
       id="circle4791"
       cx="85.4767"
       cy="42.135548"
       r="2.614908" />
    <path
       inkscape:connector-curvature="0"
       id="path4795"
       d="M 98.573692,59.097714 V 55.394389"
       style="font-style:normal;font-variant:normal;font-weight:normal;font-stretch:normal;font-size:10.58333302px;line-height:1.25;font-family:'Cutive Mono';-inkscape-font-specification:'Cutive Mono';letter-spacing:0px;word-spacing:0px;fill:none;fill-opacity:1;stroke:#ffffff;stroke-width:2.61963654;stroke-linecap:butt;stroke-linejoin:miter;stroke-miterlimit:4;stroke-dasharray:none;stroke-opacity:1"
       sodipodi:nodetypes="cc" />
    <path
       inkscape:connector-curvature="0"
       id="path4801"
       d="M 86.59887,59.097714 V 55.394389"
       style="font-style:normal;font-variant:normal;font-weight:normal;font-stretch:normal;font-size:10.58333302px;line-height:1.25;font-family:'Cutive Mono';-inkscape-font-specification:'Cutive Mono';letter-spacing:0px;word-spacing:0px;fill:none;fill-opacity:1;stroke:#ffffff;stroke-width:2.61963654;stroke-linecap:butt;stroke-linejoin:miter;stroke-miterlimit:4;stroke-dasharray:none;stroke-opacity:1"
       sodipodi:nodetypes="cc" />
    <path
       sodipodi:nodetypes="cc"
       style="font-style:normal;font-variant:normal;font-weight:normal;font-stretch:normal;font-size:10.58333302px;line-height:1.25;font-family:'Cutive Mono';-inkscape-font-specification:'Cutive Mono';letter-spacing:0px;word-spacing:0px;fill:none;fill-opacity:1;stroke:#ffffff;stroke-width:2.61963654;stroke-linecap:butt;stroke-linejoin:miter;stroke-miterlimit:4;stroke-dasharray:none;stroke-opacity:1"
       d="M 92.720182,59.097714 V 55.394389"
       id="path4805"
       inkscape:connector-curvature="0" />
    <circle
       r="2.614908"
       cy="42.135548"
       cx="99.884445"
       id="circle4807"
       style="font-style:normal;font-variant:normal;font-weight:normal;font-stretch:normal;font-size:10.58333302px;line-height:1.25;font-family:'Cutive Mono';-inkscape-font-specification:'Cutive Mono';letter-spacing:0px;word-spacing:0px;opacity:0.98999999;fill:#ffffff;fill-opacity:1;stroke:#ffffff;stroke-width:2.07686615;stroke-linecap:butt;stroke-linejoin:miter;stroke-miterlimit:4;stroke-dasharray:none;stroke-opacity:1;paint-order:normal" />
    <g
       style="font-style:normal;font-variant:normal;font-weight:normal;font-stretch:normal;font-size:10.58333302px;line-height:1.25;font-family:'Cutive Mono';-inkscape-font-specification:'Cutive Mono';letter-spacing:0px;word-spacing:0px;fill:#000000;fill-opacity:1;stroke:none;stroke-width:0.26458332"
       id="g4833"
       transform="matrix(6.6042662,0,0,6.6042662,-359.19804,-923.82406)">
      <path
         sodipodi:nodetypes="cc"
         inkscape:connector-curvature="0"
         id="path4817"
         d="m 76.31609,145.7436 3.680996,-1.45941"
         style="fill:none;stroke:#ffffff;stroke-width:0.35858798;stroke-linecap:butt;stroke-linejoin:miter;stroke-miterlimit:4;stroke-dasharray:none;stroke-opacity:1" />
      <path
         style="fill:none;stroke:#ffffff;stroke-width:0.35858798;stroke-linecap:butt;stroke-linejoin:miter;stroke-miterlimit:4;stroke-dasharray:none;stroke-opacity:1"
         d="m 76.323226,145.82677 3.895515,1.92111"
         id="path4819"
         inkscape:connector-curvature="0"
         sodipodi:nodetypes="cc" />
      <circle
         r="0.71690857"
         cy="145.80901"
         cx="76.283691"
         id="path4809"
         style="opacity:0.98999999;fill:#000000;fill-opacity:1;stroke:#ffffff;stroke-width:0.35858798;stroke-linecap:butt;stroke-linejoin:miter;stroke-miterlimit:4;stroke-dasharray:none;stroke-opacity:1;paint-order:normal" />
      <path
         style="fill:none;stroke:#ffffff;stroke-width:0.35858798;stroke-linecap:butt;stroke-linejoin:miter;stroke-miterlimit:4;stroke-dasharray:none;stroke-opacity:1"
         d="m 77.237007,148.38513 2.992936,-0.62366"
         id="path4823"
         inkscape:connector-curvature="0"
         sodipodi:nodetypes="cc" />
      <path
         sodipodi:nodetypes="cc"
         inkscape:connector-curvature="0"
         id="path4821"
         d="m 77.214605,148.27311 2.748875,-3.96414"
         style="fill:none;stroke:#ffffff;stroke-width:0.35858798;stroke-linecap:butt;stroke-linejoin:miter;stroke-miterlimit:4;stroke-dasharray:none;stroke-opacity:1" />
      <circle
         style="opacity:0.98999999;fill:#000000;fill-opacity:1;stroke:#ffffff;stroke-width:0.35858798;stroke-linecap:butt;stroke-linejoin:miter;stroke-miterlimit:4;stroke-dasharray:none;stroke-opacity:1;paint-order:normal"
         id="circle4811"
         cx="79.959183"
         cy="144.36493"
         r="0.71690857" />
      <circle
         r="0.71690857"
         cy="148.30151"
         cx="77.243912"
         id="circle4813"
         style="opacity:0.98999999;fill:#000000;fill-opacity:1;stroke:#ffffff;stroke-width:0.35858798;stroke-linecap:butt;stroke-linejoin:miter;stroke-miterlimit:4;stroke-dasharray:none;stroke-opacity:1;paint-order:normal" />
      <circle
         r="0.71690857"
         cy="147.79359"
         cx="80.215561"
         id="circle4815"
         style="opacity:0.98999999;fill:#000000;fill-opacity:1;stroke:#ffffff;stroke-width:0.35858798;stroke-linecap:butt;stroke-linejoin:miter;stroke-miterlimit:4;stroke-dasharray:none;stroke-opacity:1;paint-order:normal" />
    </g>
  </g>
</svg>
